<?xml version="1.0" encoding="UTF-8"?>
<svg id="Layer_1" data-name="Layer 1" xmlns="http://www.w3.org/2000/svg" viewBox="0 0 1024 1024">
  <defs>
    <style>
      .cls-1 {
        fill: #656565;
      }

      .cls-1, .cls-2, .cls-3, .cls-4, .cls-5, .cls-6, .cls-7, .cls-8, .cls-9, .cls-10, .cls-11, .cls-12, .cls-13, .cls-14, .cls-15, .cls-16, .cls-17, .cls-18, .cls-19, .cls-20, .cls-21, .cls-22, .cls-23, .cls-24, .cls-25, .cls-26, .cls-27, .cls-28, .cls-29, .cls-30, .cls-31, .cls-32, .cls-33, .cls-34, .cls-35, .cls-36, .cls-37, .cls-38, .cls-39, .cls-40, .cls-41, .cls-42, .cls-43, .cls-44, .cls-45, .cls-46, .cls-47, .cls-48, .cls-49, .cls-50, .cls-51, .cls-52, .cls-53, .cls-54, .cls-55, .cls-56, .cls-57, .cls-58, .cls-59, .cls-60, .cls-61, .cls-62, .cls-63, .cls-64, .cls-65, .cls-66, .cls-67, .cls-68, .cls-69, .cls-70, .cls-71, .cls-72, .cls-73 {
        stroke-width: 0px;
      }

      .cls-2 {
        fill: #6c6c6c;
      }

      .cls-3 {
        fill: #f3f3f3;
      }

      .cls-4 {
        fill: #262626;
      }

      .cls-5 {
        fill: #474747;
      }

      .cls-6 {
        fill: #535353;
      }

      .cls-7 {
        fill: #949494;
      }

      .cls-8 {
        fill: #363636;
      }

      .cls-9 {
        fill: #252525;
      }

      .cls-10 {
        fill: #171717;
      }

      .cls-11 {
        fill: #e1e1e1;
      }

      .cls-12 {
        fill: #ececec;
      }

      .cls-13 {
        fill: #8e8e8e;
      }

      .cls-14 {
        fill: #8c8c8c;
      }

      .cls-15 {
        fill: #e5e5e5;
      }

      .cls-16 {
        fill: #f7f7f7;
      }

      .cls-17 {
        fill: #0f0f0f;
      }

      .cls-18 {
        fill: #c2c2c2;
      }

      .cls-19 {
        fill: #a7a7a7;
      }

      .cls-20 {
        fill: #393939;
      }

      .cls-21 {
        fill: #f0f0f0;
      }

      .cls-22 {
        fill: #dfdfdf;
      }

      .cls-23 {
        fill: #141414;
      }

      .cls-24 {
        fill: #909090;
      }

      .cls-25 {
        fill: #343434;
      }

      .cls-26 {
        fill: #e9e9e9;
      }

      .cls-27 {
        fill: #ddd;
      }

      .cls-28 {
        fill: #d2d2d2;
      }

      .cls-29 {
        fill: #e7e7e7;
      }

      .cls-30 {
        fill: #0d0d0d;
      }

      .cls-31 {
        fill: #a1a1a1;
      }

      .cls-32 {
        fill: #fff;
      }

      .cls-33 {
        fill: #8d8d8d;
      }

      .cls-34 {
        fill: #f8f8f8;
      }

      .cls-35 {
        fill: #515151;
      }

      .cls-36 {
        fill: #5f5f5f;
      }

      .cls-37 {
        fill: #dedede;
      }

      .cls-38 {
        fill: #fafafa;
      }

      .cls-39 {
        fill: #3d3d3d;
      }

      .cls-40 {
        fill: #e2e2e2;
      }

      .cls-41 {
        fill: #2c2c2c;
      }

      .cls-42 {
        fill: #1f1f1f;
      }

      .cls-43 {
        fill: #464646;
      }

      .cls-44 {
        fill: #a5a5a5;
      }

      .cls-45 {
        fill: #434343;
      }

      .cls-46 {
        fill: #a6a6a6;
      }

      .cls-47 {
        fill: #101010;
      }

      .cls-48 {
        fill: #9a9a9a;
      }

      .cls-49 {
        fill: #404040;
      }

      .cls-50 {
        fill: #ebebeb;
      }

      .cls-51 {
        fill: #2a2a2a;
      }

      .cls-52 {
        fill: #313131;
      }

      .cls-53 {
        fill: #090909;
      }

      .cls-54 {
        fill: #444;
      }

      .cls-55 {
        fill: #a9a9a9;
      }

      .cls-56 {
        fill: #f9f9f9;
      }

      .cls-57 {
        fill: #3a3a3a;
      }

      .cls-58 {
        fill: #d6d6d6;
      }

      .cls-59 {
        fill: #fbfbfb;
      }

      .cls-60 {
        fill: #282828;
      }

      .cls-61 {
        fill: #e8e8e8;
      }

      .cls-62 {
        fill: #8f8f8f;
      }

      .cls-63 {
        fill: #1c1c1c;
      }

      .cls-64 {
        fill: #1e1e1e;
      }

      .cls-65 {
        fill: #1d1d1d;
      }

      .cls-66 {
        fill: #fdfdfd;
      }

      .cls-67 {
        fill: #292929;
      }

      .cls-68 {
        fill: #fcfcfc;
      }

      .cls-69 {
        fill: #f2f2f2;
      }

      .cls-70 {
        fill: #4a4a4a;
      }

      .cls-71 {
        fill: #aaa;
      }

      .cls-72 {
        fill: #efefef;
      }

      .cls-73 {
        fill: #111;
      }
    </style>
  </defs>
  <rect class="cls-53" x="378.31" y="830.08" width="302.07" height="78.66"/>
  <rect class="cls-53" x="206.14" y="659.36" width="636.63" height="174.32"/>
  <path class="cls-66" d="M370.18,133.27c19.22,4.75,31.63-4.64,44-14.78,6.36-5.21,13.33-9.79,20.43-13.95,4.71-2.75,6.59-5.37,4.27-10.78-1.53-3.56-1.88-7.63-3.08-12.88,3,2.21,4.73,3.64,6.61,4.84,8.75,5.57,16.66,8.36,27.76,2.87,36.5-18.06,73.42-17.42,109.58,1.94,2.95,1.58,5.05,1.3,8.05.19,7.31-2.71,13.97-6.4,21.07-12.32-.68,3.9-1.03,6.54-1.61,9.14-2.66,11.96,1.45,19.85,12.55,25.51,25.94,13.22,41.31,35.35,48.07,62.7,3.89,15.72,10.44,30.67,12.73,46.77,1.5,10.56.21,20.74-4.3,30.4-3.96,8.49.99,16.64.9,25.02-.04,4.11,6.18,5.15,9.75,7.18,38.9,22.07,78.13,43.58,116.37,66.8,5.53,3.36,7.29,6.99,7.27,13.28-.2,77.02.04,154.05-.28,231.07-.06,13.32,4.07,25.7,5.88,38.57.57,4.06,3.42,4.16,6.47,4.16,10.93-.01,21.86.12,32.78-.08,4.97-.09,6.89,1.37,6.87,6.84-.2,75.16-.21,150.32-.07,225.47.01,5.47-1.46,7.75-7.09,9.12-87.87,21.48-175.68,43.24-263.49,64.94-20.66,5.1-41.34,10.12-61.98,15.34-4.53,1.15-8.83,1.24-13.37.12-105.15-25.91-210.32-51.76-315.48-77.64q-18.34-4.51-18.33-23.21c0-70.63.08-141.25-.18-211.88-.03-7.1,1.47-9.99,9.14-9.42,9.54.71,19.18,0,28.77.27,4.64.13,7.02-.88,8.03-6.09,4.82-24.81,10.07-49.54,16.33-74.05,1.22-4.79.72-10.07.72-15.12,0-61.03.09-122.07-.31-183.09-.05-7.56,2.73-11.37,8.88-15,34.63-20.44,69.3-40.78,104.52-60.19,5.51-3.04,8.2-6.45,8.87-13.28.96-9.6,1.27-18.31-2.24-27.8-4.32-11.7-3.65-24.55,1.88-35.9,7.63-15.67,7.41-33.77,16.2-48.94,1.54-2.66-.38-4.51-1.55-6.53-3.44-5.92-6.89-11.84-11.41-19.61ZM674.9,302.14c-.89,3.88-1.78,7.76-2.68,11.63-5.86,18.77-25.21,22.85-37.93,34.36,28.19,13.08,37.86,22.86,43,47.48,2.47,11.84,4.28,23.22,14.31,31.32.95.77,1.68,2.23,1.84,3.46.78,5.91,5.07,8.15,9.81,10.41,18.54,8.82,36.13,19.24,52.37,31.85,5.48,4.25,6.41,10.53,2.75,16.74-3.26-5.03-8.02-8.48-12.79-11.84-17.47-12.32-36.62-21.68-55.6-31.33-1.91-.97-5.14-.82-4.88-4.3.58-7.96-4.58-13-9.86-17.29-4.87-3.96-6.34-8.32-6.65-14.34-1.28-24.95-13.14-42.61-36.81-52.02-7.49-2.97-15.31-4.41-22.95-6.67-2.29-.68-5.64-.8-4.13-5.02,1.14-3.16,1.75-5.93,6.46-4.39,5.94,1.94,12.24,1.09,16.23-3.77,6.09-7.42,15.86-8.41,22.87-14.55,3.96-3.47,8.99-5.92,10.32-11.15,4.39-17.36,7.83-34.89,1.86-52.63-1-2.99-.84-5.09,1.06-7.96,8.87-13.42,8.17-27.85,2.14-41.92-2.23-5.19-3.95-10.25-4.94-15.74-5.05-27.95-16.11-52.62-40.92-68.52-8.75-5.61-17.9-10.05-22.32-20.26-.75-1.74-2.29-3.65-5.22-3.99.66,5.93,2.31,11.75.72,18.94-5.95-13.27-16.39-19.86-27.96-24.98-14.61-6.47-30.03-8.96-45.93-8.34-26.91,1.05-50.48,13.15-74.37,23.6-9.1,3.98-16.67,11.36-25.11,16.93-9.54,6.3-16.62,18.16-32.28,11.92,2.21,5.45,2.8,9.22,4.92,11.68,5.72,6.62,3.38,12.47-.54,18.55-1.29,1.99-2.06,4.43-4.58,5.3-2.38.82-2.73,1.82-2.29,4.65,1.48,9.58-.93,19.01-4.9,27.47-7.05,15.02-8.49,29.45.58,43.93,1.51,2.41,2.61,4.46,1.4,7.33-7.12,16.8-2.76,33.55.58,50.22,1.05,5.22,3.15,10.64,8.68,12.63,3.46,1.24,5.54,3.9,8.34,5.5,7.97,4.58,16.1,8.73,23.29,14.63,2.6,2.14,6.85,1.89,10.06.56,5.03-2.09,5.07,1.7,6.28,4.48,1.88,4.34-1.91,4.29-4.06,4.95-4.57,1.4-9.38,2.04-13.92,3.54-25.06,8.25-43.71,22.68-45.56,51.21-.59,9.1-2.71,16.26-10.29,21.66-2.05,1.46-4.43,4.15-4.54,6.38-.59,11.91-10.42,13.78-18.33,17.84-4.97,2.55-9.98,5.05-14.82,7.84-14.01,8.05-29.14,14.53-39.64,27.64-2.77-6.96-2.3-12.41,4.67-17.41,16.06-11.53,32.52-22.28,50.5-30.57,2.17-1,4.6-1.74,5.11-4.54,1.28-7.06,6.53-11.6,11.08-16.27,3.29-3.37,4.37-6.69,4.73-11.12,2.15-26.78,15.26-45.95,40.12-56.79,2.06-.9,4.66-.84,6.2-3.2-2.15-2.97-5.74-3.95-8.26-6.18-8.65-7.64-21.27-10.05-27.2-21.36-4.03-7.69-5-16.13-6.96-24.15-2.53-.52-3.84,1.07-5.39,1.97-26.72,15.49-52.8,32.28-80.37,46.08-18.19,9.1-23.87,20.35-23.19,40.69,1.77,52.44.52,104.99.48,157.49-.6,2.04-1.27,4.06-1.78,6.13-7.93,32.04-14.37,64.4-20.31,96.85-.84,4.61-2.48,6.23-7.14,6.08-8.78-.29-17.59.24-26.38-.03-5.09-.16-6.89,1.32-6.87,6.73.17,67.7.18,135.4-.03,203.09-.02,5.23,1.98,6.84,6.55,7.9,14,3.25,27.89,6.93,41.84,10.38,90.43,22.37,180.86,44.72,271.28,67.13,3.47.86,6.75.9,10.22.05,58.12-14.39,116.25-28.75,174.39-43.06,46.25-11.39,92.49-22.8,138.8-33.94,6.06-1.46,7.81-4.12,7.7-10.34-.4-23.71-.11-47.44-.1-71.16.02-42.91-.11-85.82.17-128.73.04-6.33-1.7-8.47-8.05-8.07-7.96.5-16-.22-23.97.24-6.25.36-8.58-1.67-9.62-8.14-3.82-23.63-8.47-47.12-12.81-70.67,2.48-6.64,2.33-13.62,2.34-20.51.04-60.97-.09-121.94.04-182.91.01-4.99-1.82-7.67-5.99-10.05-28.43-16.18-56.73-32.59-85.1-48.89-9.5-5.46-19.05-10.81-29.26-16.59-.22,3.57-.37,5.94-.51,8.31Z"/>
  <path class="cls-53" d="M847.67,788.15c.02-42.91-.11-85.82.17-128.73.04-6.33-1.7-8.47-8.05-8.07-7.96.5-16-.22-23.97.24-6.25.36-8.58-1.67-9.62-8.14-3.82-23.63-8.47-47.12-12.81-70.67-4.16-15.66-8.45-31.28-14.24-46.44-2.01-4.06-.85-8.52-1.64-12.73-4.29-1.13-6.12-4.8-7.91-8.2-3.08-5.83-7.47-10.68-11.21-16.01-3.26-5.03-8.02-8.48-12.79-11.84-17.47-12.32-36.62-21.68-55.6-31.33-1.91-.97-5.14-.82-4.88-4.3.58-7.96-4.58-13-9.86-17.29-4.87-3.96-6.34-8.32-6.65-14.34-1.28-24.95-13.14-42.61-36.81-52.02-7.49-2.97-15.31-4.41-22.95-6.67-2.29-.68-5.64-.8-4.13-5.02,1.14-3.16,1.75-5.93,6.46-4.39,5.94,1.94,12.24,1.09,16.23-3.77,6.09-7.42,15.86-8.41,22.87-14.55,3.96-3.47,8.99-5.92,10.32-11.15,4.39-17.36,7.83-34.89,1.86-52.63-1-2.99-.84-5.09,1.06-7.96,8.87-13.42,8.17-27.85,2.14-41.92-2.23-5.19-3.95-10.25-4.94-15.74-5.05-27.95-16.11-52.62-40.92-68.52-8.75-5.61-17.9-10.05-22.32-20.26-.75-1.74-2.29-3.65-5.22-3.99.66,5.93,2.31,11.75.72,18.94-5.95-13.27-16.39-19.86-27.96-24.98-14.61-6.47-30.03-8.96-45.93-8.34-26.91,1.05-50.48,13.15-74.37,23.6-9.1,3.98-16.67,11.36-25.11,16.93-9.54,6.3-16.62,18.16-32.28,11.92,2.21,5.45,2.8,9.22,4.92,11.68,5.72,6.62,3.38,12.47-.54,18.55-1.29,1.99-2.06,4.43-4.58,5.3-2.38.82-2.73,1.82-2.29,4.65,1.48,9.58-.93,19.01-4.9,27.47-7.05,15.02-8.49,29.45.58,43.93,1.51,2.41,2.61,4.46,1.4,7.33-7.12,16.8-2.76,33.55.58,50.22,1.05,5.22,3.15,10.64,8.68,12.63,3.46,1.24,5.54,3.9,8.34,5.5,7.97,4.58,16.1,8.73,23.29,14.63,2.6,2.14,6.85,1.89,10.06.56,5.03-2.09,5.07,1.7,6.28,4.48,1.88,4.34-1.91,4.29-4.06,4.95-4.57,1.4-9.38,2.04-13.92,3.54-25.06,8.25-43.71,22.68-45.56,51.21-.59,9.1-2.71,16.26-10.29,21.66-2.05,1.46-4.43,4.15-4.54,6.38-.59,11.91-10.42,13.78-18.33,17.84-4.97,2.55-9.98,5.05-14.82,7.84-14.01,8.05-29.14,14.53-39.64,27.64-3.33,5.26-7.85,9.35-12.75,13.08-1.05,3.21-2.1,6.42-3.15,9.62-4.77,10.42-11.1,20.21-12.58,31.93-.6,2.04-1.27,4.06-1.78,6.13-7.93,32.04-14.37,64.4-20.31,96.85-.84,4.61-2.48,6.23-7.14,6.08-8.78-.29-17.59.24-26.38-.03-5.09-.16-6.89,1.32-6.87,6.73.17,67.7.18,135.4-.03,203.09-.02,5.23,1.98,6.84,6.55,7.9,14,3.25,27.89,6.93,41.84,10.38,90.43,22.37,180.86,44.72,271.28,67.13,3.47.86,6.75.9,10.22.05,58.12-14.39,116.25-28.75,174.39-43.06,46.25-11.39,92.49-22.8,138.8-33.94,6.06-1.46,7.81-4.12,7.7-10.34-.4-23.71-.11-47.44-.1-71.16ZM675.74,454.04c2.03-2.31,4.05-.12,5.69.72,17.26,8.86,34.83,17.21,51.07,27.86,19.37,12.71,30.41,31.64,36.92,53.33,10.39,34.66,17.42,70.1,23.82,105.67,1.73,9.59,1.39,9.66-9.12,9.46-.79-.1-1.59-.28-2.38-.28-16.56.14-16.96-.32-14.64-17.06.28-2.02,1.1-4.08-.85-6.52-4.76,5.59-5.92,12.67-9.75,18.27-2.01,2.94-3.89,6.56-7.99,4.85-4.28-1.78-2.03-5.85-.95-8.38,12.33-28.84,10.07-58.85,7.58-88.91-.51-6.14-2.85-11.52-6.25-16.82-.91,12.85-3.5,25.24-6.98,37.41-3.48,12.17-7.11,24.33-14.25,35.4-3.9-31.22-7.65-62.35-4.37-93.91-.68-.13-1.37-.27-2.05-.4-2.55,6.77-4.93,13.6-7.71,20.27-1.65,3.97-2.15,10.08-7.95,9.56-5.64-.51-10.42-4.1-12.78-9.68-2.28-5.39-3.22-11.1-2.78-17.24-7.09,10.75-9.17,23.99-18.46,33.64.29-16.3,8.1-31.34,7.96-50.07-10.56,15.19-22.54,25.24-38.64,28.93-1.46-1.33-1.16-2.47-.36-3.16,16.73-14.64,22.31-35.23,29.3-55.02,1.44-4.07,3.04-7.93,5.47-11.47-1.89-2.29-1.22-4.57.45-6.47ZM480.74,557.99c-.04,2.5-.45,4.75-3.82,4.87-3.21.11-4.3-1.71-4.31-4.39-.04-10.32-.1-20.64.19-30.95.07-2.43.66-5.94,4.15-5.73,3.22.19,3.81,3.36,3.9,6.03.17,5.02.05,10.06.05,15.08-.05,0-.09,0-.14,0,0,5.03.05,10.06-.02,15.08ZM468.81,522.79c4.06-8.53,8.11-9.31,16.08-1.97-7-2.94-11.83-2.14-16.08,1.97ZM679.59,565.9c5.37,0,10.66.25,15.67,2.41,4.7,2.02,8.57,4.9,11.2,12.5-15.88-11.99-32.41-9.27-48.37-9.3-97.79-.2-195.58-.09-293.37-.25-10.07-.02-18.6,3.8-28.71,9.69,3.72-10.64,11.07-13.32,19.08-14.5,4.97-.73,10.1-.48,15.16-.48,103.12-.03,206.23-.02,309.35-.06ZM481.46,278.26c5.45-1.01,10.84-2.75,16.24.09,5.8,1.29,7.33,5.14,6.89,10.66-1.1,14.01-7.23,21.62-19.85,24.15-14.37,2.88-27-1.83-32.33-12.05-2.86-4.49-3.04-9.74-4.2-14.71-1.17-7.62,2.57-10.76,9.79-10.9,3.94-.08,7.87-.4,13.22-.68-3.37,4.23-7.55,4.61-10.54,6.78,7.3,1.29,13.87-2.05,20.77-3.33ZM499.59,250.85c18.69-15.74,35.24-33.22,49.15-54.21.05,18.32-30.51,50.94-49.15,54.21ZM498.53,316.45c7.74-4.81,11.9-12.02,13.56-20.75,1.11-5.85,4.81-7.76,10.28-7.76,5.06,0,8.84,1.64,10.17,6.98,3.15,12.67,9.13,22.63,23.31,25.24,20.77,3.82,32.06.36,44.83-14.6,1.75,7.29-.06,13.92-1.02,20.35-5.16,34.71-24.67,60.66-51.73,81.36-14.85,11.36-36.27,11.27-51.58-.03-34.45-25.43-52.9-59.61-54.18-102.69-.02-.78.21-1.61,1.37-1.34,10.51,17.99,37.1,24.39,55.01,13.25ZM547.46,278.47c9.12-1.81,18.3-3.13,26.58-2.91,2.12.21,3.18.26,4.23.42,6.28.99,15.32-1.25,17.26,6.31,2.33,9.05-.16,19.03-7.96,25.33-10.22,8.25-22.27,7.53-34.01,3.46-10.02-3.47-12.22-12.34-13.54-21.6-.86-6.04,1.4-9.81,7.45-11.01ZM455.9,424.04c1.19,5.2-.85,9.68-.68,15.58,11.84-13.77,7.52-29.92,11.2-46.29,8.76,11.62,16.64,22.06,24.51,32.5,8.31,9.68,16.25,19.68,25.94,28.11,3.62,3.15,6.22,3.27,10.07-.02,9.36-7.99,17.54-17.01,25.17-26.61,7.95-10.21,15.9-20.42,25.16-32.31,3.17,15.88-.53,31.64,10.63,44.9,1.19-5.78-2.13-10.27-.14-15.53,4.38,2.84,8.48,5.59,12.67,8.2,3.68,2.29,1.35,4.66,0,6.67-13.18,19.53-30.18,34.12-53.32,40.59-16.48,6.26-32.98,5.95-49.51.22-22.03-6.66-38.55-20.73-52.4-38.57-3.6-4.64-4.47-8.04,1.63-11.13,3.01-1.53,5.62-3.86,9.08-6.31ZM503.93,488.4c15.41,2.35,30.68,1.69,45.89-1.66,4.92-1.08,5.11-.77,5.12,2.74-3.49,6.09-8.73,9.34-15.76,9.67-19.06,7.04-39.73,2.06-53.33-13.31,6.4.9,12.25,1.67,18.07,2.56ZM501.83,506.83c1.02-1.86,3.35-1,5.54-1.17,9.93,1.99,20.25,2.2,30.59.17,1.27-.25,2.84-.32,3.54,1.06.74,1.47-.56,2.46-1.46,3.38-5.03,5.15-10.21,10.15-15.09,15.43-2.54,2.75-4.41,2.06-6.63-.2-4.66-4.76-9.45-9.39-14.09-14.18-1.2-1.24-3.57-2.37-2.39-4.51ZM567.23,522.05c2.35.1,3.85,2.04,3.92,4.32.19,5.81.06,11.63.06,17.45.04,0,.09,0,.13,0,0,4.77.08,9.53-.04,14.3-.05,2.02.22,4.51-2.91,4.68-2.67.15-4.95-.73-5.12-3.71-.64-11.11-.54-22.23.42-33.32.16-1.86,1.46-3.81,3.53-3.72ZM564.28,516.98c6.23-1.91,9.08.25,10.67,4.92-2.88-1.99-6.49-2.62-10.67-4.92ZM613.29,360.94c28.67,7.72,44.48,25.59,44.64,56.08.04,6.94,6.38,10.15,10.34,14.43,4.24,4.57,4.72,8.21,1.24,13.08-6.6,9.23-12,19.42-21.51,26.26-9.9,17.55-29.59,22.12-44.36,33.46,2.56-7.89,10.45-11.65,15.35-20.16-13.39,7.32-23.79,15.5-34.32,23.45-3.95,2.99-7.39,4.89-12.98,3.49-8.48-2.12-15.39,2.56-21.55,8.04-4.52,4.02-9.03,8.07-14.09,11.47,12.33-20.49,29.85-35.19,51.11-45.74-.01-1.68-.03-3.36-.04-5.04-1.28.06-2.56.11-6.34.28,9.03-8.53,16.48-15.56,23.93-22.6,8.13-13.86,18.04-26.82,20.65-43.37,2.07-13.13,4.99-26.22-4.48-37.98-.52-.64-.12-2.02-.15-3.06-6.39-3.06-12.76-6.15-19.17-9.18-1.39-.66-3.51-.88-2.66-3.05.69-1.74,2.24-3.12,4.43-2.58,3.35.82,6.64,1.84,9.97,2.73ZM628.02,268.18c-.24,6.51-1.7,12.98-2.61,19.47-.94,12.98-2.81,25.84-5.16,38.62-.55,3-1.02,7.31-5.06,7.03-4.83-.33-4.18-5.01-3.88-8.21,2.54-27.44,4.16-54.98,8.79-82.19.81-4.78,1.96-9.5,8.64-5.92,2.92,10.46-.33,20.81-.71,31.2ZM650.28,271.02c-1.8,10.94-3.75,21.87-5.63,32.8-.63,3.13-1.12,6.29-1.93,9.37-.9,3.45-2.42,7.26-6.51,6.92-4.09-.34-3.91-4.64-4.04-7.63-.51-11.43-.66-22.86,1.55-34.18-.9-6.12.36-11.89,2.8-17.47.72-4.07,1.45-8.15,2.21-12.43,11.78,6.93,13.57,10.45,11.56,22.63ZM654.78,299.95c-1.95-10.22-.46-20.19.76-31.24,5.2,7.16,4.81,21.1-.76,31.24ZM655.7,210.93c4.23,1.59,4.5,7.85,4.83,12.51.29,3.99,1.77,8.3-1.35,11.98.04.79.19,1.59.09,2.36-.49,3.71.55,9.57-4.27,9.5-3.59-.05-2.3-5.78-2.14-8.94.42-8.26-4.18-14.44-7.81-21.08,3.11-3.06,7.26-7.6,10.63-6.33ZM601.01,128.11c2.03-4.68,4.21-1.38,6.1-.31,24.99,14.05,37.23,36.91,43.78,63.66.63,2.58,1.03,5.21,1.66,8.45.26,1.73-.26,3.66-2.94,4.17-2.75.52-2.82-1.73-3.33-3.45-4.18-14.03-9.05-27.75-17.07-40.17-6.87-10.64-15.02-19.99-26.23-26.16-3.14-1.73-3.26-3.21-1.97-6.19ZM590.45,194.55c7.64,3.05,10.38,10.65,14.84,16.74,3.54-3.84-3.04-9.03,2.44-12.05-3.41-7.42-6.24-15.14-11.93-22,3.51-1.39,5,1.57,7.18,2.26,2.3-3.15-2.4-6.29,0-9.44-.41-.86-1.31-1.86-1.11-2.54.31-1.06,1.5-1.12,2.48-.45,1.24.85,2.47,1.72,3.71,2.59,1.65-3.57-5.47-8.36,1.55-11.19,3.17-3.5,4.96-.47,6.69,1.59,4.35,5.17,6.86,11.33,9.08,17.61,2.89,8.16,5.68,16.36,9.06,26.08-5.84-4.86-8.12-9.95-10.7-14.83-2.52-.98-2.6-5.22-6.25-4.69,3.72,8.69,7.43,17.37,12.1,28.29-4.44-3.99-7.18-6.46-10.25-9.22-.56,3.41,3.02,5.64.98,8.99-4.63-1.85-6.41-7.23-10.87-9.27,1.67,9.5,3.15,19.03,3.04,28.72.21,3.79-.8,7.16-3.83,11.65-.92-8.22-2.34-14.78-7.83-21.99,1.01,14.99,2.43,28.18-6.44,39.63,4-26.47-2.94-50.76-14.78-74.41q6.91.99,10.84,7.93ZM580.31,213.89c10.76,11.78,8.72,35.86,4.46,44.23-2.59,5.08-6.9,2.19-10.54,2.41-15.4.73-30.33,3.32-44.56,9.69-7.33,3.29-14.4,1.23-20.78-3.32-.11-.08-.1-.61.01-.68.44-.28.94-.45,1.41-.67,12.63-6,25.43-11.61,35.97-21.26,4.98-4.56,8.99-9.94,13.95-14.63-2.11,9.95-7.18,18.08-14.59,24.85-.79.64-2.25,1.29-2.24,1.91.03,2,2.07,1.46,2.8,1.07,3.6-1.93,7.03-4.16,10.52-6.28,9.76-11.09,19.38-22.27,23.59-37.33ZM564.79,166.49c-22.22,15.28-27.16,41.24-45.97,56.74-9.83,8.1-20.01,15.2-31.91,19.97,3.66-5.21,6.86-10.69,12.23-14.33,5.72-8.16,10.24-16.96,15.37-27.96-8.96,6.33-13.95,14.06-21.74,18.35-3.19,6.79-10.35,8.85-15.65,13.12-3.87,4.33-8.87,6.87-14.8,8.2,4.32-3.33,8.65-6.66,12.97-9.99l10.99-9.94c14.77-18.4,29.26-37.12,51.32-47.67,7.37-5.38,15.64-7.04,27.18-6.5ZM401.76,171.97c.43-2.44.52-5.79,3.11-6.64,2.31-.76,4.01,1.84,5.58,3.53-.86,2.85-3.02,4.3-5.56,5.17-1.71.58-3.5.07-3.12-2.05ZM391.98,198.03c1.09-2.55-.36-7.36,3.93-8.64,1.97-.59,4.68,1.82,3.41,4.79-1.42,3.34.02,8.73-5.12,9.48-2.58.37-2.53-2.76-2.22-5.63ZM385.56,215.6c1.58-5.11,3.47-6.54,7.68-2.51,1.62,1.55,4.67,1.46,5.09,4.42-6.77,8.74-8.5,19.07-8.39,31.25-5.23-3.9-4.86-8.3-5.78-12.11-.46-7.07-.76-14.06,1.4-21.05ZM392.93,311.55c-4.74-4.31-5.44-8.3-5.57-12.53-1.11-9.83-4.46-19.69-.09-30.21,3.05,3.81,2.74,7.65,3.34,11.23,2.14,9.9,3.08,19.85,2.33,31.5ZM408,319.84c-5.76.85-6.21-6.06-7.44-10.53-.91-3.32-1.4-6.76-2.07-10.15-1.77-10.71-3.59-21.41-5.29-32.13-.91-5.73-.21-10.73,6.73-12.2,1.14-.63,2.28-1.27,3.41-1.9,4.69.85,3.8,5.05,4.62,8.06.82,2.98,1.03,6.13,1.51,9.2,1.09,12.46,2.5,24.9,3.1,37.38.22,4.46.78,11.48-4.57,12.27ZM428.57,332.4c-4.98.66-5.31-7.02-6.01-11.48-1.9-12.04-3.21-24.17-4.76-36.27-.74-6.77-1.58-13.53-2.15-20.31-.2-2.37-1.62-5.4,2.05-6.71,6.96.99,9.35,4.88,9.75,11.98.94,16.66,3.2,33.24,4.33,49.89.3,4.49,2.98,12.08-3.21,12.9ZM435.11,232.51c-.59-.65-3.56-.3-1.59-1.89,4.52-3.65,9.56-6.66,14.39-9.92,11.31-11.66,24.44-21.49,36.32-35.55-20.32,8.93-38.1,18.29-56,27.24,4.86-5.23,9.73-10.45,14.58-15.69,1.45-1.56,3.12-3.31-1.06-2.7-1.49,2.59-4.1,3.75-6.57,5.06-5.61,5.13-11.22,10.25-16.84,15.38,4.9-9.53,9.59-19.06,18.25-25.66,1.55-1.79,2.86-3.87,5.43-4.39,11.06-7.57,22.11-15.14,33.17-22.71-.61-.59-1.22-1.18-1.83-1.77-14.93,8.23-30.45,15.15-46.76,20.17-10.02,3.08-20.03,2.95-29.95-1.25,19.98.12,36.96-9.5,55.03-15.92-9.81-1.45-19.73,2.41-29.33-1.63,1.88-2.5,5.92.23,7.63-3.79-9.06-.72-18.01-1.53-25.54-7.79,27.16,2.8,49.31-7.95,69.45-24.34l-3.41-2.01c-12.62,5.86-23.89,15.08-40.4,15.93,4.57-3.04,7.77-5.17,12.72-8.46-7.78.11-13.28,3.59-19.94,2.02,23.08-12.64,46.38-23.07,70.67-30.9,18.91-6.09,38.26-6.43,57.1,1.34,1.56.64,3.88.56,4.18,3.28-3.76,1.95-7-1.51-10.57-1.1-7.84,3.14-16.11.97-24.13,1.94-2.63,1.19-5.26,2.37-8.62,3.89,2.38.43,4.06.74,5.75,1.04,9.41-.08,18.88-.75,28.12,2.86-28.71-.87-53.84,7.91-75.57,27.12,5.84-.13,10.65-3.06,15.86-4.44,8.01-2.12,15.63-7.08,24.48-3.74,8.82,2.51,17.07-3.09,27.97-1.27-16.21,4.24-27.42,14.08-40.32,20.9-3.75,2.69-7.51,5.37-11.26,8.06-2.11,2.25-5.22,4.16-6.11,6.82-1.29,3.87,1.42,1.65,2.79,1.02,11.19-8.27,37.48-17.33,54.57-18.76,1.53,3.17-3.85,3.52-2.4,7.21,5.37-.85,10.97-1.73,16.56-2.62-28.97,13.87-49.08,38.22-72.31,58.71-10.6,9.35-23.23,14.92-36.58,18.98-2.53.77-5.59,2.77-7.93-.69ZM381.77,425.73c2.81-3.11,4.13-6.34,4.32-10.66,1.57-37.21,20.57-47.6,53.17-56.57,2.46-.68,4.46.24,5.21,2.44,1.15,3.34-2.26,2.88-3.84,3.73-6.06,3.24-12.81,5.16-18.35,9.44-12.7,27.11-3.62,50.75,11.82,73.28,2.25,3.29,5.2,6.09,5.91,10.24,7.64,7.13,15.29,14.27,23.08,21.54-4.73,3.81-6.18.45-8.22-.96-3.06,5.69,2.27,6.32,5.12,7.67,20.72,9.77,39.81,31.13,47.7,45.8-5.87-5.04-11.74-10.1-17.62-15.12-5.78-4.93-12.16-7.92-19.76-4.8-3.8,1.56-5.83-.54-8.41-2.55-11.68-9.12-23.74-17.73-37.45-24.42,5.41,6.04,10.82,12.07,16.23,18.11-.61.73-1.22,1.46-1.83,2.18-12.84-13.77-31.76-19.25-43.45-34.59-5.57-2.72-8.23-7.99-11.31-12.89-1.16-1.45-2.37-2.85-3.47-4.34q-10.63-14.41,1.15-27.51ZM277.86,812.35c-9.25-22.65-19.59-44.86-29.51-67.24-.39-.89-.89-1.73-2.93-2.43,0,8.06.02,16.12,0,24.17-.05,18.12-.23,36.24-.12,54.35.03,4.26-1.2,6.27-5.71,6.51-6.37.34-12.78.91-19.05,2.03-6.08,1.09-8.3-.28-8.24-7.03.3-37.3.13-74.6.09-111.9-.01-11.99.07-23.98-.28-35.97-.14-4.88,1.49-6.96,6.35-6.31.26.03.53,0,.8,0,9.03.18,19.5-2.42,26.67,1.32,6.95,3.62,7.93,14.97,11.48,22.94,8.11,18.17,15.86,36.5,23.76,54.77.65-.17,1.3-.33,1.95-.5,0-23.38.24-46.75-.16-70.12-.11-6.55,1.49-9.2,8.3-8.39,8.36.98,19.62-3.68,24.4,1.9,4.14,4.83,1.35,15.73,1.36,23.95.06,39.17-.2,78.34.24,117.5.08,7.45-2.44,9.85-9.24,9.79-4.25-.04-8.72-.26-12.72.88-9.76,2.78-13.87-1.45-17.45-10.21ZM328.21,866.2c-1.63,2.71-4.47,3.78-6.84,2.52-10.11-5.39-21.37-2.31-31.82-4.82-.96-.23-1.93-.4-2.89-.6,0-.37,0-.74-.01-1.11,6.81-.48,13.62-1.06,20.44-1.4,4.74-.24,9.37-.06,13.69-2.97,2.27-1.53,5.19-.51,7.14,1.78,1.78,2.1,1.69,4.3.3,6.6ZM321.11,514.2c2.5,31.81-1.44,63.09-5.11,94.55-11.84-23.33-20.34-47.34-21.24-75.88-6.71,12.69-7.11,24.54-7.98,35.9-1.94,25.19.2,50.06,9.94,73.81,1.09,2.65,3.97,6.25-.88,8.01-3.75,1.36-6.73-.63-8.37-4.26-3.26-7.22-6.47-14.46-11.31-21.36.51,5.56.57,11.21,1.65,16.66,1.45,7.29-1.37,9.95-8.35,9.55-3.46-.2-6.93-.09-10.39-.12-10.04.23-9.97.24-8.15-9.92,6.41-35.8,13.81-71.38,24.22-106.27,7.99-26.77,23.67-47.18,48.91-59.9,12.8-6.45,25.51-13.09,38.12-19.89,5.34-2.88,7.2-.92,7.55,4.32,7.26,25.44,16.05,50.13,35.13,70.03-11.09.65-21.11-6.47-40.86-29.06-.98,18.1,8.4,33.06,9.22,51.13-10.08-10.2-12.62-22.61-18.05-33.89-2.28,3-1.21,5.76-1.64,8.28-1.15,6.79-3.27,13-9.83,16.51-6.78,3.63-10,2.33-12.71-4.92-2.91-7.79-4.03-16.31-9.86-23.29ZM345.09,869.69c-3.97-.06-6.2-2.77-5.98-6.82.2-3.72,2.56-5.54,6.07-5.83,3.76.41,6.32,2.48,6.3,5.98-.02,3.71-2.38,6.73-6.39,6.67ZM365.21,867.09c-2.51.31-4.1-1.08-4.34-3.46-.23-2.38,1.27-3.83,3.54-4.45,2.5.21,3.84,1.66,3.9,4.04.05,2.01-.94,3.6-3.1,3.87ZM395.77,866.24c.02,3.99-.06,7.98.05,11.96.08,3.15-.28,6.82,4.43,6.96,3.48.1,7.48,1.56,8.48-4.26.87-5.04,5.3-3.35,8.5-3.12,4.06.29,3.14,3.69,3,6.14-.12,2.05-.37,4.65-1.64,6-7.65,8.09-17.49,4.13-26.32,3.6-6.13-.37-7.98-6.39-8.06-12.08-.14-10.63-.26-21.27.03-31.9.24-8.7,4.28-12.4,12.99-12.65,4.25-.12,8.51-.13,12.76.04,6.35.24,9.74,3.83,10.19,10,.19,2.67,1.31,6.54-3.26,6.66-3.06.08-7.38,1.65-8.25-3.63-.99-6.04-5.67-3.42-8.87-3.57-4.35-.21-3.93,3.46-4,6.3-.11,4.52-.03,9.04-.03,13.56ZM414.13,797.1c-1.62-8.62-5.07-11.59-13.64-10.45-6.28.84-12.77.47-19.14.18-4.49-.2-6.69,1.07-7.47,5.85-1.11,6.8-3.1,13.46-4.72,20.18-.67,2.79-1.83,4.62-5.29,4.73-8.23.27-16.46.83-24.66,1.58-4.8.44-6.56-.22-4.99-5.82,10.81-38.63,21.3-77.35,31.84-116.06,1.95-7.17,4.09-14.33,5.43-21.63,1.11-6.07,4.34-7.45,9.96-7.16,8.23.43,16.54.63,24.73-.04,6.16-.5,8.25,2.11,9.66,7.48,10,38.04,20.21,76.03,30.38,114.02,1.44,5.39,2.8,10.81,4.55,16.11,1.89,5.71,0,7.73-5.81,7.18-3.43-.32-6.91-.06-10.37-.06-16.73.71-17.3.81-20.47-16.1ZM469.07,858.83c-.14,2.39-.02,4.79-.02,7.18h-.08c0,5.85.12,11.71-.03,17.55-.17,6.67-3.68,10.49-10.42,10.53-20.61.11-26.24,3.24-25.22-23.2.29-7.44.11-14.89.14-22.34.02-7.09,3.84-11.21,10.63-11.43,19.35-.62,26.39-2.75,25.01,21.71ZM444.64,651.11c-.47.01-.95.02-1.42.02-11.73,0-23.45,0-35.18.01-19.29-.03-38.59-.06-57.88-.09-3.75.36-4.24-1.87-4.34-4.95-.55-18.36-1.42-36.72-1.82-55.09-.23-10.44,4.16-14.7,14.98-15.07,7.72-.26,15.45-.06,23.18-.06,98.34,0,196.67.02,295.01.04,3.2,0,6.43-.19,9.58.2,9.78,1.21,14.01,6.28,13.54,16.04-.85,17.56-1.74,35.11-2.72,52.66-.12,2.14,1.08,5.69-2.33,5.81-3.77.13-2.41-3.48-2.32-5.54.77-17.55,1.47-35.1,2.69-52.62.5-7.23-1.73-10.76-9.25-9.99-3.69,17.73-13.5,32.21-24.6,45.95-4,4.95-9.04,9.11-12.81,14.21-5.19,7.01-11.76,8.76-20.13,8.65-29.31-.38-58.63-.15-87.95-.15-2.82,0-5.65,0-8.47,0,.07-.08-87.04,1.12-87.76-.03ZM519.79,879.81c-.29,9.85-4.7,14.07-14.27,14.3q-21.22.52-21.12-20.91c.01-2.66,0-5.32,0-7.99,0-7.45.25-14.92-.1-22.36-.21-4.61,1.4-6.24,5.91-5.93,3.97.27,7.98,0,11.98,0,12.16,0,17.22,4.58,17.61,16.53.28,8.78.25,17.58-.01,26.35ZM568.23,889.61c-.08,2.78-.68,4.59-3.96,4.55-8.51-.09-17.02-.07-25.53-.04-4.04.02-3.83-2.82-3.84-5.52-.02-7.71,0-15.43,0-23.14.06,0,.13,0,.19,0,0-7.71.15-15.43-.06-23.14-.11-4.18,1.54-5.59,5.64-5.48,7.44.22,14.89.1,22.34-.02,3.07-.05,5.01.46,5.02,4.27.01,3.67-1.03,5.52-4.95,5.23-2.38-.18-4.78-.05-7.18-.04-9.37.03-9.68.55-9.03,9.99.23,3.35,1.2,4.84,4.69,4.62,2.91-.19,5.85.02,8.77.11,3.08.09,3.02,2.35,3.04,4.53.01,2.22-.07,4.4-3.1,4.51-1.86.07-3.76.33-5.58.04-6.47-1.04-7.81,1.89-8.01,7.94-.22,6.95,3.3,7.19,8.3,6.84,2.91-.2,5.86.06,8.77-.1,3.58-.2,4.57,1.57,4.48,4.84ZM570.68,706.37c.03,32.77-.11,65.54.24,98.31.07,6.45-1.9,8.47-8.14,8.01-6.36-.48-12.8-.39-19.17-.02-4.96.29-6.41-1.54-6.35-6.37.23-17.32.09-34.64.09-51.95h.1c0-16.52-.45-33.06.2-49.55.31-7.76-2.49-9.64-9.48-9-5.55.51-11.19-.07-16.77.14-3.98.15-5.48-1.07-5.7-5.37-1.13-21.82-1.27-21.79,20.37-21.81,22.91-.01,45.83.07,68.74-.22,5.18-.07,6.81,1.4,6.87,6.69.23,20.67.42,20.67-20.31,20.64-12.89-.02-10.69-.5-10.68,10.5ZM618.28,893.61c-4.72,2.06-9.95.89-11.57-5.82-.74-3.07-2.4-5.9-3.38-8.92-1.04-3.22-3.36-3.76-6.23-3.59-3.7.22-2.96,3.12-3.13,5.34-.2,2.65-.36,5.34-.12,7.97.43,4.75-1.88,5.74-6.13,5.78-4.23.04-5.58-1.43-5.45-5.55.25-7.7.07-15.42.07-23.13h.04c0-7.44.22-14.9-.08-22.33-.19-4.69,1.11-6.81,6.2-6.48,6.09.4,12.23-.11,18.33.19,6.82.33,11.19,4.13,11.25,11.01.07,8.23,2.56,16.66-3.32,24.54-2.63,3.52,2.18,7.74,2.92,11.79.57,3.1,5.57,7.05.6,9.22ZM645.98,855.1c-.57,3.93,2.02,5.03,5.34,5.2,2.13.11,4.25.2,6.37.38,7.44.64,11.42,4.16,11.68,12.18.66,20.14-8.95,27.4-28.31,20.82-3.45-1.17-6.23-3.53-6.79-7.2-.43-2.78-2.41-7.28,2.04-7.9,3.22-.45,8.79-3.56,10.08,3.5.88,4.79,4.87,3.11,7.75,3.22,3.37.12,3.25-2.56,3.58-5.02.9-6.7-.33-10.43-8.58-11.05-14.52-1.09-20.72-12.78-14.58-26.11,3.57-7.75,11.06-5.88,16.87-6.21,13.39-.02,16.91,1.87,17.71,9.49.25,2.4,1.56,6.02-2.67,6.09-2.98.05-7.5,2.65-8.71-2.48-1.39-5.86-5.9-4.11-8.91-3.56-4.94.9-2.44,5.57-2.88,8.64ZM698.46,869.7c-3.84.23-6.47-2.54-6.6-6.37-.13-3.58,2.27-5.65,5.79-6.06,3.76.04,6.25,1.76,6.61,5.43.4,4.05-2.06,6.78-5.8,7.01ZM687.28,816.49c-16.98,2.79-34.04,1.96-50.36-4.27-13.09-4.99-20.11-15.13-20.28-28.84-.45-36.23-.15-72.47-.33-108.71-.03-5.06,2.01-6.35,6.68-6.13,6.91.32,13.87.44,20.77-.02,5.77-.38,7.17,1.94,7.14,7.31-.19,33.04-.12,66.08-.1,99.12,0,14.31,10.08,21.42,23.89,16.71,6.15-2.1,6.97-7.22,6.95-12.95-.12-33.04-.12-66.08-.12-99.12,0-13.48-.69-10.97,11.1-10.82,7.34.09,16.76-3.43,21.47,1.53,4.29,4.51,1.16,13.74,1.26,20.87.19,13.85.06,27.71.06,41.57-.01,16.79.07,33.57-.03,50.36-.12,19.68-8.45,30.16-28.08,33.39ZM735.37,865.44c-4.43.33-8.8.15-12.71,3.22-2.22,1.75-5.21.92-7.13-1.37-1.81-2.17-2.43-4.67-.75-7.33,1.63-2.57,4.36-3.96,6.79-2.63,11.1,6.09,23.42,2.2,34.9,4.73,1.02.22,2.06.35,3.08.53.08.29.16.59.24.88-8.14.66-16.29,1.37-24.44,1.97ZM785.3,692.29c-6.93.13-11.84,2.31-12.52,10.26-1.35,15.73-.9,16.73,13.31,23.04,9.73,4.32,19.42,8.74,29.23,12.87,13.3,5.61,19.75,15.55,19.69,29.91-.04,9.59.09,19.19.05,28.78-.08,22.35-10.46,32.91-32.85,32.54-14.49-.24-28.57-3.19-41.67-9.76-16.59-8.32-25.8-27.81-21.9-45.75.68-3.11,2.4-3.06,4.61-2.64,8.37,1.59,16.71,3.33,25.09,4.81,4.43.78,4.2,3.81,4.24,7.14.18,12.77,4.16,16.94,16.93,18.04,8.75.75,11.69-1.87,11.82-10.59.05-2.93,0-5.86,0-10.78,3.36-10.87-3.11-16.77-14.52-20.87-11.47-4.12-22.39-9.83-33.36-15.24-10.06-4.96-14.78-13.38-14.45-24.64.12-3.99.03-8,.04-11.99.06-23.57,9.07-35.52,32.12-40.71,13.11-2.95,26.44-2.82,39.36,2.04,17.23,6.48,27.15,24.13,23.95,42.28-.68,3.84-2.63,3.91-5.63,3.4-5.77-.99-11.55-2.02-17.37-2.57-6.3-.59-10.91-1.47-10.54-9.99.3-6.85-5.72-9.78-15.65-9.59Z"/>
  <path class="cls-47" d="M287.97,487.71c-3.33,5.26-7.85,9.35-12.75,13.08-.49-10.33-1.32-20.65-1.4-30.98-.21-24.95.96-49.96-.42-74.84-.93-16.61,2-29.13,19.05-35.05.69-.24,1.18-1.04,1.77-1.57,25.48-13.48,50.26-28.1,74.64-43.39-.5-.84-.99-1.68-1.49-2.52-25.31,14.86-50.63,29.72-75.94,44.58-3.47,1.95-6.82,4.2-10.45,5.8-7.94,3.5-10.98,8.8-10.84,17.97.58,40.13.24,80.28.27,120.42,0,3.15-.52,6.43,1.67,9.21-4.77,10.42-11.1,20.21-12.58,31.93.04-52.5,1.29-105.05-.48-157.49-.69-20.33,5-31.58,23.19-40.69,27.57-13.8,53.64-30.59,80.37-46.08,1.55-.9,2.86-2.49,5.39-1.97,1.95,8.02,2.92,16.46,6.96,24.15,5.93,11.31,18.55,13.72,27.2,21.36,2.53,2.23,6.12,3.21,8.26,6.18-1.53,2.36-4.14,2.31-6.2,3.2-24.86,10.84-37.97,30.01-40.12,56.79-.36,4.43-1.44,7.75-4.73,11.12-4.55,4.67-9.8,9.21-11.08,16.27-.51,2.8-2.94,3.54-5.11,4.54-17.98,8.3-34.43,19.04-50.5,30.57-6.97,5-7.44,10.45-4.67,17.41ZM362.74,383.73c-.02-9.5-.17-9.64-8.07-5.96-6.02,2.8-11.95,5.78-17.91,8.71-13.58,6.69-27.19,13.32-40.69,20.15-4.16,2.11-6.77,11.67-3.93,15.42,3.27,4.31,6.82.23,9.67-1.13,17.97-8.58,35.74-17.59,53.65-26.29,5-2.43,8.59-5.39,7.28-10.9ZM308.79,375.78c-.08,10.03.24,10.25,8.36,6.36,3.59-1.72,7.19-3.44,10.75-5.23,12.58-6.33,25.17-12.63,37.69-19.06,4.7-2.41,8.1-12.05,4.97-15.71-3.57-4.18-7.19.29-10.34,1.79-15.1,7.19-29.99,14.85-45.07,22.09-4.62,2.22-7.46,4.98-6.37,9.76ZM291.26,446.7c.03,9.24.72,9.7,8.64,6.08,5.57-2.55,11.1-5.21,16.6-7.91,9.33-4.57,18.68-9.11,27.92-13.87,4.31-2.22,6.56-11.34,3.56-15.36-3.24-4.34-6.27.15-8.89,1.33-13.83,6.28-27.37,13.17-41.2,19.43-5.18,2.34-7.57,5.53-6.63,10.29Z"/>
  <path class="cls-47" d="M777.51,513.6c-4.29-1.13-6.12-4.8-7.91-8.2-3.08-5.83-7.47-10.68-11.21-16.01,3.66-6.21,2.72-12.49-2.75-16.74-16.24-12.61-33.83-23.03-52.37-31.85-4.74-2.25-9.03-4.5-9.81-10.41-.16-1.23-.9-2.7-1.84-3.46-10.03-8.1-11.84-19.48-14.31-31.32-5.13-24.62-14.8-34.4-43-47.48,12.72-11.51,32.07-15.59,37.93-34.36,1.76.49,3.77.59,5.25,1.52,31.41,19.81,64.63,36.5,96.35,55.76,2.6,1.58,4.73,3.4,5.31,6.55-.89,45.33,1.45,90.69-1.63,135.99ZM760.04,416.79c1.28-5.19-2.01-8.07-6.82-10.29-19.56-9.05-39.02-18.32-58.62-27.28-2.81-1.29-6.63-5.51-8.9-1.95-2.19,3.44-2.17,9.06.45,12.93,1.63,2.41,4.99,3.87,7.83,5.22,19.23,9.13,38.54,18.11,57.8,27.16,8.02,3.77,8.25,3.65,8.25-5.78ZM676.74,348.05c-.74,3.62.15,6.9,4.06,9.01,18.47,9.96,37.53,18.68,56.62,27.36,1.64.75,3.41,1.58,4.72-.84,2.53-4.65-.13-13.17-5.06-15.54-17.7-8.51-35.49-16.85-53.1-25.54-6.24-3.08-8.29-1.44-7.24,5.53ZM760.26,447.66c.23-3.21.12-6.74-4.19-8.7-15.94-7.24-31.81-14.63-47.72-21.94-2.39-1.1-4.99-1.62-5.33,2.01-.54,5.73-1.64,11.39,5.81,14.6,14.6,6.3,28.87,13.4,43.29,20.13,7.7,3.59,8.08,3.31,8.15-6.11Z"/>
  <path class="cls-73" d="M793.39,572.77c-4.16-15.66-8.45-31.28-14.24-46.44,5.09-.91,3-5.03,3.01-7.66.17-46.04.14-92.09.14-138.13,0-3.18.24-6.42-1.58-9.31-2.01-1.28-3.98-2.65-6.04-3.84-30.66-17.64-61.24-35.4-92.07-52.73-5.37-3.02-7.87-6.66-7.71-12.52.15-2.37.29-4.74.51-8.31,10.21,5.78,19.76,11.13,29.26,16.59,28.36,16.3,56.67,32.7,85.1,48.89,4.17,2.37,6,5.05,5.99,10.05-.13,60.97,0,121.94-.04,182.91,0,6.89.14,13.87-2.34,20.51Z"/>
  <path class="cls-35" d="M674.9,302.14c-.16,5.86,2.34,9.5,7.71,12.52,30.83,17.33,61.42,35.1,92.07,52.73,2.07,1.19,4.03,2.56,6.04,3.84-.02,2.25-.32,4.44-1.59,6.38-.58-3.15-2.71-4.97-5.31-6.55-31.72-19.27-64.94-35.95-96.35-55.76-1.48-.93-3.49-1.03-5.25-1.52.89-3.88,1.78-7.76,2.68-11.63Z"/>
  <path class="cls-63" d="M686.36,582.49c-3.69,17.73-13.5,32.22-24.6,45.95-4,4.96-9.03,9.11-12.81,14.21-5.19,7.01-11.76,8.76-20.13,8.65-29.31-.38-58.63-.15-87.95-.15,0,0-121.1,0-132.83,0-6.98-1.84-12.38-6.09-16.89-11.48-4.1-4.9-8.05-9.94-11.83-15.09-9.6-13.1-19.1-26.28-24.09-42.04,52.13-.1,104.26-.28,156.39-.28,58.25,0,116.49.15,174.74.23Z"/>
  <path class="cls-66" d="M283.12,747.06c0-23.38.24-46.75-.16-70.12-.11-6.55,1.49-9.2,8.3-8.39,8.36.98,19.62-3.68,24.4,1.9,4.14,4.83,1.35,15.73,1.36,23.95.06,39.17-.2,78.34.24,117.5.08,7.45-2.44,9.85-9.24,9.79-4.25-.04-8.72-.26-12.72.88-9.76,2.78-13.87-1.45-17.45-10.21-9.25-22.65-19.59-44.86-29.51-67.24-.39-.89-.89-1.73-2.93-2.43,0,8.06.02,16.12,0,24.17-.05,18.12-.23,36.24-.12,54.35.03,4.26-1.2,6.27-5.71,6.51-6.37.34-12.78.91-19.05,2.03-6.08,1.09-8.3-.28-8.24-7.03.3-37.3.13-74.6.09-111.9-.01-11.99.07-23.98-.28-35.97-.14-4.88,1.49-6.96,6.35-6.31.26.03.53,0,.8,0,9.03.18,19.5-2.42,26.67,1.32,6.95,3.62,7.93,14.97,11.48,22.94,8.11,18.17,15.86,36.5,23.76,54.77.65-.17,1.3-.33,1.95-.5Z"/>
  <path class="cls-32" d="M701.99,732.74c0,16.79.08,33.57-.03,50.36-.12,19.68-8.45,30.16-28.08,33.39-16.98,2.79-34.04,1.96-50.36-4.27-13.09-4.99-20.11-15.13-20.28-28.84-.45-36.23-.15-72.47-.33-108.71-.03-5.06,2.01-6.35,6.68-6.13,6.91.32,13.87.44,20.77-.02,5.77-.38,7.17,1.94,7.14,7.31-.19,33.04-.12,66.08-.1,99.12,0,14.31,10.08,21.42,23.89,16.71,6.15-2.1,6.97-7.22,6.95-12.95-.12-33.04-.12-66.08-.12-99.12,0-13.48-.69-10.97,11.1-10.82,7.34.09,16.76-3.43,21.47,1.53,4.29,4.51,1.16,13.74,1.26,20.87.19,13.85.06,27.71.05,41.57Z"/>
  <path class="cls-66" d="M801.34,780.17c3.36-10.87-3.11-16.77-14.52-20.87-11.47-4.12-22.39-9.83-33.36-15.24-10.06-4.96-14.78-13.38-14.45-24.64.12-3.99.03-8,.04-11.99.06-23.57,9.07-35.52,32.12-40.71,13.11-2.95,26.44-2.82,39.36,2.04,17.23,6.48,27.15,24.13,23.95,42.28-.68,3.84-2.63,3.91-5.63,3.4-5.77-.99-11.55-2.02-17.37-2.57-6.3-.59-10.91-1.47-10.54-9.99.3-6.85-5.72-9.78-15.65-9.59-6.93.13-11.84,2.31-12.52,10.26-1.35,15.74-.9,16.73,13.31,23.04,9.73,4.32,19.42,8.74,29.23,12.87,13.3,5.61,19.75,15.55,19.69,29.91-.04,9.59.09,19.19.05,28.78-.08,22.35-10.46,32.91-32.85,32.54-14.49-.24-28.57-3.19-41.67-9.76-16.59-8.32-25.8-27.81-21.9-45.75.68-3.11,2.4-3.06,4.61-2.64,8.37,1.59,16.71,3.33,25.09,4.81,4.43.78,4.2,3.81,4.24,7.14.18,12.77,4.16,16.94,16.93,18.04,8.75.75,11.69-1.87,11.82-10.59.05-2.93,0-5.86,0-10.78Z"/>
  <path class="cls-66" d="M447.61,810.01c-16.73.71-17.3.81-20.47-16.1-1.62-8.62-5.07-11.59-13.64-10.45-6.28.84-12.77.47-19.14.18-4.49-.2-6.69,1.07-7.47,5.85-1.11,6.8-3.1,13.46-4.72,20.18-.67,2.79-1.83,4.62-5.29,4.73-8.23.27-16.46.83-24.66,1.58-4.8.44-6.56-.22-4.99-5.82,10.81-38.63,21.3-77.35,31.84-116.06,1.95-7.17,4.09-14.33,5.43-21.63,1.11-6.07,4.34-7.45,9.96-7.16,8.23.43,16.54.63,24.73-.04,6.16-.5,8.25,2.11,9.66,7.48,10,38.04,20.21,76.03,30.38,114.02,1.44,5.39,2.8,10.81,4.55,16.11,1.89,5.71,0,7.73-5.81,7.18-3.43-.32-6.91-.06-10.37-.06ZM405.57,714.35c-2.83,12.88-5.42,25.03-8.21,37.14-1.05,4.56.29,5.97,5.06,6.09,14.44.35,14.43.55,11.38-13.56-.79-3.64-1.17-7.41-2.35-10.92-2-5.94-1.57-12.66-5.87-18.75Z"/>
  <path class="cls-65" d="M784.12,651.07c-.79-.1-1.59-.28-2.38-.28-16.56.14-16.96-.32-14.64-17.06.28-2.02,1.1-4.08-.85-6.52-4.76,5.59-5.92,12.67-9.75,18.27-2.01,2.94-3.89,6.56-7.99,4.85-4.28-1.78-2.03-5.85-.95-8.38,12.33-28.84,10.07-58.85,7.58-88.91-.51-6.14-2.85-11.52-6.25-16.82-.91,12.85-3.5,25.24-6.98,37.41-3.48,12.17-7.11,24.33-14.25,35.4-3.9-31.22-7.65-62.35-4.37-93.91-.68-.13-1.37-.27-2.05-.4-2.55,6.77-4.93,13.6-7.71,20.27-1.65,3.97-2.15,10.08-7.95,9.56-5.64-.51-10.42-4.1-12.78-9.68-2.28-5.39-3.22-11.1-2.78-17.24-7.09,10.75-9.17,23.99-18.46,33.64.29-16.3,8.1-31.34,7.96-50.07-10.56,15.19-22.54,25.24-38.64,28.93-1.46-1.33-1.16-2.47-.36-3.16,16.73-14.64,22.31-35.23,29.3-55.02,1.44-4.07,3.04-7.93,5.47-11.47,13.47,10.42,27.98,19.16,42.86,27.41,5.04,2.8,9.45,6.84,13.88,10.63,20.81,17.84,27.33,42.19,30.94,67.95,2.35,16.73,3.08,33.56,4.76,50.72,1.91-5.13,3.81-10.26,5.72-15.4l1.52.11c3.05,16.38,6.11,32.76,9.16,49.14Z"/>
  <path class="cls-65" d="M369.71,459.4c7.26,25.44,16.05,50.13,35.13,70.03-11.09.65-21.11-6.47-40.86-29.06-.98,18.1,8.4,33.06,9.22,51.13-10.08-10.2-12.62-22.61-18.05-33.89-2.28,3-1.21,5.76-1.64,8.28-1.15,6.79-3.27,13-9.83,16.51-6.78,3.63-10,2.33-12.71-4.92-2.91-7.79-4.03-16.31-9.86-23.29,2.5,31.81-1.44,63.09-5.11,94.55-11.84-23.33-20.34-47.34-21.24-75.88-6.71,12.69-7.11,24.54-7.98,35.9-1.94,25.19.2,50.06,9.94,73.81,1.09,2.65,3.97,6.25-.88,8.01-3.75,1.36-6.73-.63-8.37-4.26-3.26-7.22-6.47-14.46-11.31-21.36.51,5.56.57,11.21,1.65,16.66,1.45,7.29-1.37,9.95-8.35,9.55-3.46-.2-6.93-.09-10.39-.12,3.35-17.23,6.7-34.46,10.38-53.4,2.69,7.59,4.73,13.36,6.77,19.12.42-19.1,2.76-37.51,5.56-55.93,4.66-30.67,17.12-56.62,44.59-73.04,14.87-8.88,29.79-17.57,43.35-28.41Z"/>
  <path class="cls-66" d="M506.59,752.9c0-16.52-.45-33.06.2-49.55.31-7.76-2.49-9.64-9.48-9-5.55.51-11.19-.07-16.77.14-3.98.15-5.48-1.07-5.7-5.37-1.13-21.82-1.27-21.79,20.37-21.81,22.91-.01,45.83.07,68.74-.22,5.18-.07,6.81,1.4,6.87,6.69.23,20.67.42,20.67-20.31,20.63-12.89-.02-10.69-.5-10.68,10.5.03,32.77-.11,65.54.24,98.31.07,6.45-1.9,8.47-8.14,8.01-6.36-.48-12.8-.39-19.17-.02-4.96.29-6.41-1.54-6.35-6.37.23-17.32.09-34.64.09-51.95h.1Z"/>
  <path class="cls-64" d="M454.88,478.2c-3.06,5.69,2.27,6.32,5.12,7.67,20.72,9.77,39.81,31.13,47.7,45.8-5.87-5.04-11.74-10.1-17.62-15.12-5.78-4.93-12.16-7.92-19.76-4.8-3.8,1.56-5.83-.54-8.41-2.55-11.68-9.12-23.74-17.73-37.45-24.42,5.41,6.04,10.82,12.07,16.23,18.11-.61.73-1.22,1.46-1.83,2.18-12.84-13.77-31.76-19.25-43.45-34.59-.09-1.19-.18-2.38-.27-3.57,1.45.35,3.6,1.45,4.21.89,1.47-1.36-.21-2.87-1.07-4.1-5.22-7.41-10.16-15-13.96-23.26-1.69-3.66-2.76-7.34.71-10.74,3.24,1.87,1.87,6.86,6.27,8.18,3.7-13.3,7.35-26.37,11.12-39.93,1.06,1.09,1.64,1.41,1.72,1.82.37,1.82.56,3.68.88,5.51,3.3,18.73,10.15,35.7,23.52,49.77,8.11,8.54,17.31,15.72,26.34,23.15Z"/>
  <path class="cls-59" d="M784.12,651.07c-3.05-16.38-6.11-32.76-9.16-49.14l-1.52-.11c-1.91,5.13-3.81,10.26-5.72,15.4-1.68-17.16-2.41-33.99-4.76-50.72-3.62-25.76-10.13-50.11-30.94-67.95-4.42-3.79-8.83-7.83-13.88-10.63-14.88-8.25-29.39-16.99-42.86-27.41-1.89-2.29-1.22-4.57.45-6.47,2.03-2.31,4.05-.12,5.69.72,17.26,8.86,34.83,17.21,51.07,27.86,19.37,12.71,30.41,31.64,36.92,53.33,10.39,34.66,17.42,70.1,23.82,105.67,1.73,9.59,1.39,9.66-9.12,9.46Z"/>
  <path class="cls-68" d="M369.71,459.4c-13.55,10.84-28.48,19.53-43.35,28.41-27.48,16.42-39.94,42.37-44.59,73.04-2.8,18.42-5.14,36.84-5.56,55.93-2.04-5.77-4.08-11.53-6.77-19.12-3.68,18.94-7.03,36.17-10.38,53.4-10.04.23-9.97.24-8.15-9.92,6.41-35.8,13.81-71.38,24.22-106.27,7.99-26.77,23.67-47.18,48.91-59.9,12.8-6.45,25.51-13.09,38.12-19.89,5.34-2.88,7.2-.92,7.55,4.32Z"/>
  <path class="cls-38" d="M686.36,582.49c-58.25-.08-116.49-.24-174.74-.23-52.13,0-104.26.18-156.38.28-5.67.11-6.78,3.5-6.63,8.46.58,20.02,2.58,40.01,1.56,60.07-3.75.36-4.24-1.87-4.34-4.95-.55-18.36-1.42-36.72-1.82-55.09-.23-10.44,4.16-14.7,14.98-15.07,7.72-.26,15.45-.06,23.18-.06,98.34,0,196.67.02,295.01.04,3.2,0,6.43-.19,9.58.2,9.78,1.21,14.01,6.28,13.54,16.04-.85,17.56-1.74,35.11-2.72,52.66-.12,2.14,1.08,5.69-2.33,5.81-3.77.13-2.41-3.48-2.32-5.54.77-17.55,1.47-35.1,2.69-52.62.5-7.23-1.73-10.76-9.25-9.99Z"/>
  <path class="cls-55" d="M443.52,303.2c10.52,17.99,37.1,24.4,55.02,13.25,7.74-4.81,11.9-12.02,13.56-20.75,1.11-5.85,4.81-7.76,10.28-7.76,5.06,0,8.84,1.64,10.17,6.98,3.15,12.67,9.13,22.63,23.31,25.24,20.77,3.82,32.06.36,44.83-14.6,1.75,7.29-.06,13.92-1.02,20.35-5.16,34.71-24.67,60.66-51.73,81.36-14.85,11.36-36.27,11.27-51.58-.03-34.45-25.43-52.9-59.61-54.18-102.69-.02-.78.21-1.61,1.36-1.35ZM524.89,411.04c8.54-.04,17.43-4.18,24.63-11.34,19.04-18.93,33.44-40.68,39.41-67.34,2.13-9.5,2.26-9.47-7.2-7.46-25.25,5.37-41.55-3.13-51.14-26.71-1.5-3.68-3.54-6.56-7.97-6.75-4.96-.22-6.97,3.09-8.53,7.01-1.84,4.64-2.34,9.67-5.98,13.74-13.87,15.5-31.02,15.78-49.2,10.97-5.82-1.54-7.24-.55-5.61,5.43,6.84,25.21,19.35,47.19,36.97,66.37,8.83,9.61,19.27,15.89,34.62,16.08Z"/>
  <path class="cls-59" d="M517.24,112.35c9.41-.08,18.88-.75,28.12,2.86-28.71-.87-53.84,7.91-75.57,27.12,5.84-.13,10.65-3.06,15.86-4.44,8.01-2.12,15.63-7.08,24.48-3.74-14.94,4.76-25.29,16.06-36.76,25.76-14.93,8.23-30.45,15.15-46.76,20.17-10.02,3.08-20.03,2.95-29.95-1.25,19.98.12,36.96-9.5,55.03-15.92-9.81-1.45-19.73,2.41-29.33-1.63,1.88-2.5,5.92.23,7.63-3.79-9.06-.72-18.01-1.53-25.54-7.79,27.16,2.8,49.31-7.95,69.45-24.34,13.18-8.56,28.27-10.74,43.34-13.01Z"/>
  <path class="cls-42" d="M647.99,470.79c-9.9,17.55-29.59,22.12-44.36,33.46,2.56-7.89,10.45-11.65,15.35-20.16-13.39,7.32-23.79,15.5-34.32,23.45-3.95,2.99-7.39,4.89-12.98,3.49-8.48-2.12-15.39,2.56-21.55,8.04-4.52,4.02-9.03,8.07-14.09,11.47,12.33-20.49,29.85-35.19,51.11-45.74,22.85-10.51,42.01-25.77,57.96-45.14,1.75-2.13,4.03-3.43,6.44-4.59,1.56,1.27,1.26,4.36,4.19,4.3-4.11,3-2.96,6.62-1.21,10.32-1.29,4.38-4.05,8.01-6.89,11.31-3.24,3.77-2.55,6.63.35,9.79Z"/>
  <path class="cls-19" d="M497.58,480.05c-22.03-6.66-38.55-20.73-52.4-38.57-3.6-4.64-4.47-8.04,1.63-11.13,3.01-1.53,5.62-3.86,9.08-6.31,1.19,5.2-.85,9.68-.68,15.58,11.84-13.77,7.52-29.92,11.2-46.29,8.76,11.62,16.64,22.06,24.51,32.5,1.17,18.2,3.39,36.27,6.64,54.22Z"/>
  <path class="cls-46" d="M552.12,427.32c7.95-10.21,15.9-20.42,25.16-32.31,3.17,15.88-.53,31.64,10.63,44.9,1.19-5.78-2.13-10.27-.14-15.53,4.38,2.84,8.48,5.59,12.67,8.2,3.68,2.29,1.35,4.66,0,6.67-13.18,19.53-30.18,34.12-53.32,40.59,1.53-12.84,3.32-25.67,4.47-38.54.41-4.6,2.75-9.24.56-13.97Z"/>
  <path class="cls-59" d="M647.99,470.79c-2.9-3.16-3.6-6.02-.35-9.79,2.84-3.3,5.6-6.93,6.89-11.31,3.36-6.26,9.71-11.93,3.7-21.51-1.03,4.65-1.76,7.92-2.49,11.19-2.93.06-2.63-3.03-4.19-4.3l-10.06-37.69c-3.33,24.97-12.75,46.18-30.93,63.49-7.33,6.98-15.96,12.2-23.45,18.89-1.28.06-2.56.11-6.34.28,9.03-8.53,16.48-15.56,23.93-22.6,22.06-18.08,29.29-42.06,27.18-69.5-.53-6.92-3.79-12.68-11.17-14.91-6.39-3.06-12.76-6.15-19.17-9.18-1.39-.66-3.51-.88-2.66-3.05.69-1.74,2.24-3.12,4.43-2.58,3.35.82,6.64,1.84,9.97,2.73,28.67,7.72,44.48,25.59,44.64,56.08.04,6.94,6.38,10.15,10.34,14.43,4.24,4.57,4.72,8.21,1.24,13.08-6.6,9.23-12,19.42-21.51,26.26Z"/>
  <path class="cls-66" d="M552.12,427.32c2.19,4.73-.15,9.37-.56,13.97-1.15,12.88-2.93,25.7-4.47,38.54-16.48,6.26-32.98,5.95-49.51.22-3.25-17.95-5.47-36.02-6.64-54.22,8.31,9.68,16.25,19.68,25.94,28.11,3.62,3.15,6.22,3.27,10.07-.02,9.36-7.99,17.54-17.01,25.17-26.61Z"/>
  <path class="cls-59" d="M454.88,478.2c-9.03-7.43-18.23-14.61-26.34-23.15-13.38-14.08-20.22-31.04-23.52-49.77-.32-1.83-.51-3.69-.88-5.51-.09-.42-.67-.73-1.72-1.82-3.78,13.57-7.42,26.63-11.12,39.93-4.39-1.32-3.03-6.31-6.27-8.18-3.47,3.4-2.4,7.08-.71,10.74,3.81,8.26,8.74,15.84,13.96,23.26.87,1.23,2.55,2.74,1.07,4.1-.61.56-2.76-.54-4.21-.89-4.36-2.3-2.87-11.53-11.04-9.32-1.16-1.45-2.37-2.85-3.47-4.34q-10.63-14.41,1.15-27.51c2.81-3.11,4.13-6.34,4.32-10.66,1.57-37.21,20.57-47.6,53.17-56.57,2.46-.68,4.46.24,5.21,2.44,1.15,3.34-2.26,2.88-3.84,3.73-6.06,3.24-12.81,5.16-18.35,9.44-6.7,1.9-8.81,7.18-9.6,13.29-3.64,28.36,5.46,51.79,27.33,70.23,7.64,7.13,15.29,14.27,23.08,21.54-4.73,3.81-6.18.45-8.22-.96Z"/>
  <path class="cls-59" d="M486.52,161.84c-2.11,2.25-5.22,4.16-6.11,6.82-1.29,3.87,1.42,1.65,2.79,1.02,3.06.62,5.67-.9,8.43-1.77,10.33-3.25,20.62-6.71,33.37-7-11.49,9.32-20.46,18.67-29.83,27.61-13.45,12.84-27.71,24.68-43.93,33.97-1.11-.6-2.23-1.2-3.34-1.81,11.31-11.66,24.44-21.49,36.32-35.55-20.32,8.93-38.1,18.29-56,27.24,4.86-5.23,9.73-10.45,14.58-15.69,1.45-1.56,3.12-3.31-1.06-2.7-3.02-3.29,4.78-6.28.28-9.61,11.06-7.57,22.11-15.14,33.17-22.71,5.84-3.77,11.68-7.54,17.51-11.31.45,5.18-6.01,6.63-6.19,11.47Z"/>
  <path class="cls-59" d="M336,580.94c3.72-10.64,11.07-13.32,19.08-14.5,4.97-.73,10.1-.48,15.16-.48,103.12-.03,206.23-.02,309.35-.06,5.37,0,10.66.25,15.67,2.41,4.7,2.02,8.57,4.9,11.2,12.5-15.88-11.99-32.41-9.27-48.37-9.3-97.79-.2-195.58-.09-293.37-.25-10.07-.02-18.6,3.8-28.71,9.69Z"/>
  <path class="cls-68" d="M574.03,275.57c2.12.21,3.18.26,4.23.42,6.28.99,15.32-1.25,17.26,6.31,2.33,9.05-.16,19.03-7.96,25.33-10.22,8.25-22.27,7.53-34.01,3.46-10.02-3.47-12.22-12.34-13.54-21.6-.86-6.04,1.4-9.81,7.45-11.01,9.12-1.81,18.3-3.13,26.58-2.91Z"/>
  <path class="cls-17" d="M350.16,651.06c1.02-20.06-.97-40.05-1.56-60.07-.14-4.96.96-8.35,6.63-8.46,4.98,15.76,14.49,28.94,24.09,42.04,3.78,5.15,7.72,10.19,11.82,15.09,4.51,5.39,9.91,9.64,16.89,11.48-19.29-.03-38.59-.06-57.88-.09Z"/>
  <path class="cls-59" d="M582.38,865.67c0-7.44.22-14.9-.08-22.33-.19-4.69,1.11-6.81,6.2-6.48,6.09.4,12.23-.11,18.33.19,6.82.33,11.19,4.13,11.25,11.01.07,8.23,2.56,16.66-3.32,24.54-2.63,3.52,2.18,7.74,2.92,11.79.57,3.1,5.57,7.05.6,9.22-4.72,2.06-9.95.89-11.57-5.82-.74-3.07-2.4-5.9-3.38-8.92-1.04-3.22-3.36-3.76-6.23-3.59-3.7.22-2.96,3.12-3.13,5.34-.2,2.65-.36,5.34-.12,7.97.43,4.75-1.88,5.74-6.13,5.78-4.23.04-5.58-1.43-5.45-5.55.25-7.7.07-15.42.07-23.13h.04ZM606.52,856.35c-.41-4.31,1.89-10.15-6.74-10.02-6.02.09-6.76,3.15-5.87,7.44.92,4.44-3.81,11.86,6.4,11.94,7.53.06,6.06-4.76,6.22-9.35Z"/>
  <path class="cls-59" d="M484.4,865.21c0-7.45.25-14.92-.1-22.36-.21-4.61,1.4-6.24,5.91-5.93,3.97.27,7.98,0,11.98,0,12.16,0,17.22,4.58,17.61,16.53.28,8.78.25,17.58-.01,26.35-.29,9.85-4.7,14.07-14.27,14.3q-21.22.52-21.12-20.91c.01-2.66,0-5.32,0-7.99ZM495.98,865.06c0,4.79.06,9.58-.02,14.37-.05,3.17.07,5.84,4.49,5.62,3.85-.19,8.03.12,8.16-5.18.23-9.04.15-18.1-.08-27.14-.13-5.17-3.54-6.38-8.22-6.32-5.23.06-4.27,3.63-4.34,6.67-.09,3.99-.02,7.99,0,11.98Z"/>
  <path class="cls-59" d="M468.97,866.01c0,5.85.12,11.71-.03,17.55-.17,6.67-3.68,10.49-10.42,10.53-20.61.11-26.24,3.24-25.22-23.2.29-7.44.11-14.89.14-22.34.02-7.09,3.84-11.21,10.63-11.43,19.35-.62,26.39-2.75,25.01,21.71-.14,2.39-.02,4.79-.02,7.18h-.08ZM457.72,866.22h-.05c0-4.5-.19-9,.05-13.48.25-4.64-1.28-6.67-6.3-6.58-4.64.09-6.77,1.41-6.64,6.34.24,8.72.21,17.45,0,26.18-.11,4.65,1.48,6.67,6.39,6.61,4.63-.05,6.91-1.41,6.59-6.38-.28-4.21-.06-8.46-.06-12.69Z"/>
  <path class="cls-54" d="M451.24,222.5c16.22-9.29,30.48-21.13,43.93-33.97,9.37-8.94,18.34-18.3,29.83-27.61-12.75.29-23.04,3.75-33.37,7-2.76.87-5.37,2.38-8.43,1.77,11.19-8.27,37.48-17.33,54.57-18.76,1.53,3.17-3.85,3.52-2.4,7.21,5.37-.85,10.97-1.73,16.56-2.62-28.97,13.87-49.08,38.22-72.31,58.71-10.6,9.35-23.23,14.92-36.58,18.98-2.53.77-5.59,2.77-7.93-.69,5.38-3.34,10.76-6.67,16.14-10.01Z"/>
  <path class="cls-38" d="M651.44,836.9c13.39-.02,16.91,1.87,17.71,9.49.25,2.4,1.56,6.02-2.67,6.09-2.98.05-7.5,2.65-8.71-2.48-1.39-5.86-5.9-4.11-8.91-3.56-4.94.9-2.44,5.57-2.88,8.64-.57,3.93,2.02,5.03,5.34,5.2,2.13.11,4.25.2,6.37.38,7.44.64,11.42,4.16,11.68,12.18.66,20.14-8.95,27.4-28.31,20.82-3.45-1.17-6.23-3.53-6.79-7.2-.43-2.78-2.41-7.28,2.04-7.9,3.22-.45,8.79-3.56,10.08,3.5.88,4.79,4.87,3.11,7.75,3.22,3.37.12,3.25-2.56,3.58-5.02.9-6.7-.33-10.43-8.58-11.05-14.52-1.09-20.72-12.78-14.58-26.11,3.57-7.75,11.06-5.88,16.87-6.21Z"/>
  <path class="cls-56" d="M535.08,865.47c0-7.71.15-15.43-.06-23.14-.11-4.18,1.54-5.59,5.64-5.48,7.44.22,14.89.1,22.34-.02,3.07-.05,5.01.46,5.02,4.27.01,3.67-1.03,5.52-4.95,5.23-2.38-.18-4.78-.05-7.18-.04-9.37.03-9.68.55-9.03,9.99.23,3.35,1.2,4.84,4.69,4.62,2.91-.19,5.85.02,8.77.11,3.08.09,3.02,2.35,3.04,4.53.01,2.22-.07,4.4-3.1,4.51-1.86.07-3.76.33-5.58.04-6.47-1.04-7.81,1.89-8.01,7.94-.22,6.95,3.3,7.19,8.3,6.84,2.91-.2,5.86.06,8.77-.1,3.58-.2,4.57,1.57,4.48,4.84-.08,2.78-.68,4.59-3.96,4.55-8.51-.09-17.02-.07-25.53-.04-4.04.02-3.83-2.82-3.84-5.52-.02-7.71,0-15.43,0-23.14.06,0,.13,0,.19,0Z"/>
  <path class="cls-68" d="M497.7,278.36c5.8,1.29,7.33,5.14,6.89,10.66-1.1,14.01-7.23,21.62-19.85,24.15-14.37,2.88-27-1.83-32.33-12.05,12.66-12.43,27.53-20.47,45.28-22.75Z"/>
  <path class="cls-38" d="M395.78,866.24c.01,3.99-.07,7.98.04,11.96.08,3.15-.28,6.82,4.43,6.96,3.48.1,7.48,1.56,8.48-4.26.87-5.04,5.3-3.35,8.5-3.12,4.06.29,3.14,3.69,3,6.14-.12,2.05-.37,4.65-1.64,6-7.65,8.09-17.49,4.13-26.32,3.6-6.13-.37-7.98-6.39-8.06-12.09-.14-10.63-.26-21.27.03-31.9.24-8.7,4.28-12.4,12.99-12.65,4.25-.12,8.51-.13,12.76.04,6.35.24,9.74,3.83,10.19,10,.19,2.67,1.31,6.54-3.26,6.66-3.06.08-7.38,1.65-8.25-3.63-.99-6.04-5.67-3.42-8.87-3.57-4.35-.21-3.93,3.46-4,6.3-.11,4.52-.03,9.04-.02,13.56Z"/>
  <path class="cls-56" d="M486.28,220.65c14.77-18.4,29.26-37.12,51.32-47.67,6.62.66,12.12-4.24,20.71-4.33-15.82,10.17-24.36,24.25-33.61,37.74-5.41,7.9-11.73,15.03-19.02,21.25-1.85,1.58-3.69,4.48-6.54,1.23,5.72-8.16,10.24-16.96,15.37-27.96-8.96,6.33-13.95,14.06-21.74,18.35-2.24.11-4.04,2.24-6.48,1.39Z"/>
  <path class="cls-56" d="M470.49,123.36c-12.62,5.86-23.89,15.08-40.4,15.93,4.57-3.04,7.77-5.17,12.72-8.46-7.78.11-13.28,3.59-19.94,2.02,23.08-12.64,46.38-23.07,70.67-30.9,18.91-6.09,38.26-6.43,57.1,1.34,1.56.64,3.88.56,4.18,3.28-3.76,1.95-7-1.51-10.57-1.1-14.79-5.32-29.31-3.61-43.68,1.73-.47-.12-.91-.04-1.32.24-4.68.04-8.6,2.46-12.79,4.04-3.62,1.36-.25,2.58.02,3.86-5.33,2.67-10.66,5.34-15.99,8.01Z"/>
  <path class="cls-10" d="M587.1,479.75c7.49-6.69,16.11-11.9,23.45-18.89,18.18-17.31,27.6-38.51,30.93-63.49l10.06,37.69c-2.41,1.16-4.69,2.46-6.44,4.59-15.95,19.37-35.1,34.63-57.96,45.14-.01-1.68-.03-3.36-.04-5.04Z"/>
  <path class="cls-64" d="M625.41,287.65c-.94,12.98-2.81,25.84-5.16,38.62-.55,3-1.02,7.31-5.06,7.03-4.83-.33-4.18-5.01-3.88-8.21,2.54-27.44,4.16-54.98,8.79-82.19.81-4.78,1.96-9.5,8.64-5.92-2.25,2.23-2.61,5.17-2.8,8.08-.7,11.1-1.35,22.21-1.92,33.32-.16,3.15-.44,6.39,1.4,9.28Z"/>
  <path class="cls-34" d="M652.55,199.91c.26,1.73-.26,3.66-2.94,4.17-2.75.52-2.82-1.73-3.33-3.45-4.18-14.03-9.05-27.75-17.07-40.17-6.87-10.64-15.02-19.99-26.23-26.16-3.14-1.73-3.26-3.21-1.97-6.19,2.03-4.68,4.21-1.38,6.1-.31,24.99,14.05,37.23,36.91,43.78,63.66.63,2.58,1.03,5.21,1.66,8.45Z"/>
  <path class="cls-64" d="M417.7,257.63c6.96.99,9.35,4.88,9.75,11.98.94,16.66,3.2,33.24,4.33,49.89.3,4.49,2.98,12.08-3.21,12.9-4.98.66-5.31-7.02-6.01-11.48-1.9-12.04-3.21-24.17-4.76-36.26.88.07,2.76,3.89,2.33.4-1.14-9.13.42-18.48-2.43-27.42Z"/>
  <path class="cls-16" d="M545.64,254.52c-.79.64-2.25,1.29-2.24,1.91.03,2,2.07,1.46,2.8,1.07,3.6-1.93,7.03-4.16,10.52-6.28,7.65-1,10.68-8.67,17.16-12.45,1.36,7.69.92,14.73.34,21.76-15.4.73-30.33,3.32-44.56,9.69-7.33,3.29-14.4,1.23-20.78-3.32-.11-.08-.1-.61.01-.68.44-.28.94-.45,1.41-.67,10.47-.21,19.22-5.49,28.35-9.65,2.2-1,4.04-4.02,6.98-1.39Z"/>
  <path class="cls-49" d="M499.14,228.87c2.86,3.25,4.69.35,6.54-1.23,7.29-6.22,13.61-13.35,19.02-21.25,9.25-13.49,17.79-27.57,33.61-37.74-8.59.09-14.09,4.99-20.71,4.33,7.37-5.38,15.64-7.04,27.18-6.5-22.22,15.28-27.16,41.24-45.97,56.74-9.83,8.1-20.01,15.2-31.91,19.97,3.66-5.21,6.86-10.69,12.23-14.33Z"/>
  <path class="cls-67" d="M399.92,254.83c1.14-.63,2.28-1.27,3.41-1.9,1,6.13.2,12.89,6.13,17.26,1.09,12.46,2.5,24.9,3.1,37.38.22,4.46.78,11.48-4.57,12.27-5.76.85-6.21-6.06-7.44-10.53-.91-3.32-1.4-6.76-2.07-10.15,5.23,2.37,2.27-2,2.26-3.08-.05-13.75-1.98-27.47-.83-41.25Z"/>
  <path class="cls-34" d="M539.19,499.15c-19.06,7.04-39.73,2.06-53.33-13.31,6.4.9,12.25,1.67,18.07,2.56,15.41,2.35,30.68,1.69,45.89-1.66,4.92-1.08,5.11-.77,5.12,2.74-6.7.86-10.6,6.29-15.76,9.67Z"/>
  <path class="cls-44" d="M574.22,260.54c.58-7.04,1.02-14.07-.34-21.76-6.48,3.78-9.51,11.44-17.16,12.45,9.76-11.09,19.38-22.27,23.59-37.33,10.76,11.78,8.72,35.86,4.46,44.23-2.59,5.08-6.9,2.19-10.54,2.41Z"/>
  <path class="cls-39" d="M612.49,231.73c.21,3.79-.8,7.16-3.83,11.65-.92-8.22-2.34-14.78-7.83-21.99,1.01,14.99,2.43,28.18-6.44,39.63,4-26.47-2.94-50.76-14.78-74.41q6.91,1,10.84,7.93c-.78.78-1.21,1.51-.47,2.68,7.22,11.35,14.92,22.42,20.02,35,.6,1.47,1.66-.21,2.48-.5Z"/>
  <path class="cls-43" d="M272.07,510.42c-2.19-2.77-1.67-6.06-1.67-9.21-.03-40.14.31-80.28-.27-120.42-.13-9.17,2.91-14.47,10.84-17.97,3.63-1.6,6.97-3.85,10.45-5.8.93.44,1.86.89,2.79,1.33-.59.54-1.08,1.33-1.77,1.57-17.05,5.92-19.98,18.44-19.05,35.05,1.39,24.87.22,49.89.42,74.84.09,10.33.91,20.65,1.4,30.98-1.05,3.21-2.1,6.42-3.15,9.62Z"/>
  <path class="cls-39" d="M779.14,377.61c1.27-1.94,1.57-4.12,1.59-6.38,1.81,2.88,1.58,6.13,1.58,9.31,0,46.04.02,92.09-.14,138.13,0,2.64,2.08,6.76-3.01,7.66-2.01-4.06-.85-8.52-1.64-12.73,3.07-45.3.74-90.67,1.63-135.99Z"/>
  <path class="cls-4" d="M644.65,303.82c-.63,3.13-1.12,6.29-1.93,9.37-.9,3.45-2.42,7.26-6.51,6.92-4.09-.34-3.91-4.64-4.04-7.63-.51-11.43-.66-22.86,1.55-34.18,4.33-2.68,4.12-7.15,4.47-11.4l-.11.26c7.82.19,3.04,6.99,5.29,10.11-.04,2.85-.24,5.7-.08,8.54.33,6.01-2.28,12.26,1.37,18.02Z"/>
  <path class="cls-9" d="M507.37,505.66c9.93,1.99,20.25,2.2,30.59.17,1.27-.25,2.84-.32,3.54,1.06.74,1.47-.56,2.46-1.46,3.38-5.03,5.15-10.21,10.15-15.09,15.43-2.54,2.75-4.41,2.06-6.63-.2-4.66-4.76-9.45-9.39-14.09-14.18-1.2-1.24-3.57-2.37-2.39-4.51,1.02-1.86,3.35-1,5.54-1.17Z"/>
  <path class="cls-61" d="M602.97,170.05c-.41-.86-1.31-1.86-1.11-2.54.31-1.06,1.5-1.12,2.48-.45,1.24.85,2.47,1.72,3.71,2.59,3.14,4.86,6.28,9.72,9.42,14.57,3.72,8.69,7.43,17.37,12.1,28.29-4.44-3.99-7.18-6.46-10.25-9.22-.56,3.41,3.02,5.64.98,8.99-4.63-1.85-6.41-7.23-10.87-9.27-.57-1.26-1.15-2.52-1.72-3.77-3.41-7.42-6.24-15.14-11.93-22,3.51-1.39,5,1.57,7.18,2.26,2.28,2.12,4.11,4.95,8.7,5.86-2.3-6.35-3.45-11.92-8.71-15.3Z"/>
  <path class="cls-45" d="M492.71,150.37c-5.84,3.77-11.68,7.54-17.51,11.31-.61-.59-1.22-1.18-1.83-1.77,11.47-9.71,21.83-21,36.76-25.76,8.82,2.51,17.07-3.09,27.97-1.27-16.21,4.24-27.42,14.08-40.32,20.9-2.34-2.53,1.45-4.43.92-6.93-2.57.56-4.44,1.77-5.99,3.51Z"/>
  <path class="cls-60" d="M620.71,373.02c7.37,2.23,10.63,7.98,11.17,14.91,2.11,27.45-5.13,51.42-27.18,69.5,8.13-13.86,18.04-26.82,20.65-43.37,2.07-13.13,4.99-26.22-4.48-37.98-.52-.64-.12-2.02-.15-3.06Z"/>
  <path class="cls-39" d="M499.59,250.85c18.69-15.74,35.24-33.22,49.15-54.21.05,18.32-30.51,50.94-49.15,54.21Z"/>
  <path class="cls-51" d="M440.02,457.62c-21.88-18.44-30.97-41.87-27.33-70.23.78-6.11,2.9-11.39,9.6-13.29-12.7,27.11-3.62,50.75,11.82,73.28,2.25,3.29,5.2,6.09,5.91,10.24Z"/>
  <path class="cls-29" d="M480.76,542.91c0,5.03.05,10.06-.02,15.08-.04,2.5-.45,4.75-3.82,4.87-3.21.11-4.3-1.71-4.31-4.39-.04-10.32-.1-20.64.19-30.95.07-2.43.66-5.94,4.15-5.73,3.22.19,3.81,3.36,3.9,6.03.17,5.02.05,10.06.05,15.08-.05,0-.09,0-.14,0Z"/>
  <path class="cls-7" d="M497.7,278.36c-17.76,2.28-32.63,10.32-45.28,22.75-2.86-4.49-3.04-9.74-4.2-14.71,5.81,2.68,7.84-4.44,12.47-4.81,7.3,1.29,13.87-2.05,20.77-3.33,5.45-1.01,10.84-2.75,16.24.09Z"/>
  <path class="cls-3" d="M571.34,543.82c0,4.77.08,9.53-.04,14.3-.05,2.02.22,4.51-2.91,4.68-2.67.15-4.95-.73-5.12-3.71-.64-11.11-.54-22.23.42-33.32.16-1.86,1.46-3.81,3.53-3.72,2.35.1,3.85,2.04,3.92,4.32.19,5.81.06,11.63.06,17.45.04,0,.09,0,.13,0Z"/>
  <path class="cls-72" d="M644.65,303.82c-3.65-5.76-1.04-12.01-1.37-18.02-.15-2.84.05-5.69.08-8.54,2.13-7.17,2.55-14.29-.06-22.39-4.13,3.99-4.79,8.09-5.23,12.29,0,0,.11-.26.11-.26-1.95-1.64-1.18-4.03-1.67-6.08.72-4.07,1.45-8.15,2.21-12.43,11.78,6.93,13.57,10.45,11.56,22.63-1.8,10.94-3.75,21.87-5.63,32.8Z"/>
  <path class="cls-50" d="M607.72,199.24c.57,1.26,1.15,2.52,1.72,3.77,1.67,9.5,3.15,19.03,3.04,28.72-.83.3-1.89,1.98-2.48.5-5.1-12.58-12.81-23.65-20.02-35-.74-1.17-.31-1.9.47-2.68,7.64,3.05,10.38,10.65,14.84,16.74,3.54-3.84-3.04-9.03,2.44-12.05Z"/>
  <path class="cls-13" d="M545.64,254.52c-2.94-2.63-4.78.39-6.98,1.39-9.13,4.16-17.88,9.43-28.35,9.65,12.63-6,25.43-11.61,35.97-21.26,4.98-4.56,8.99-9.94,13.95-14.63-2.11,9.95-7.18,18.08-14.59,24.85Z"/>
  <path class="cls-21" d="M759.81,863.46c-8.14.66-16.29,1.37-24.44,1.97-4.43.33-8.8.15-12.71,3.22-2.22,1.75-5.21.92-7.13-1.37-1.81-2.17-2.43-4.67-.75-7.33,1.63-2.57,4.36-3.96,6.79-2.63,11.1,6.09,23.42,2.2,34.9,4.73,1.02.22,2.06.35,3.08.53l.24.88Z"/>
  <path class="cls-69" d="M286.65,862.19c6.81-.48,13.62-1.06,20.44-1.4,4.74-.24,9.37-.06,13.69-2.97,2.27-1.53,5.19-.51,7.14,1.78,1.78,2.1,1.69,4.3.3,6.6-1.63,2.71-4.47,3.78-6.84,2.52-10.11-5.39-21.37-2.31-31.82-4.82-.96-.23-1.93-.4-2.89-.6,0-.37,0-.74-.01-1.11Z"/>
  <path class="cls-12" d="M609.6,158.46c3.17-3.5,4.96-.47,6.69,1.59,4.35,5.17,6.86,11.33,9.08,17.61,2.89,8.16,5.68,16.36,9.06,26.08-5.84-4.86-8.12-9.95-10.7-14.83-3-10.94-6.09-21.85-14.13-30.45Z"/>
  <path class="cls-15" d="M399.92,254.83c-1.15,13.78.78,27.5.83,41.25,0,1.08,2.97,5.46-2.26,3.08-1.77-10.71-3.59-21.41-5.29-32.13-.91-5.73-.21-10.73,6.73-12.2Z"/>
  <path class="cls-25" d="M659.19,235.42c.04.79.19,1.59.09,2.36-.49,3.71.55,9.57-4.27,9.5-3.59-.05-2.3-5.78-2.14-8.94.42-8.26-4.18-14.44-7.81-21.08,9.36.97,13.2,6.42,12.78,15.51-.04.86.87,1.77,1.34,2.66Z"/>
  <path class="cls-41" d="M609.6,158.46c8.04,8.61,11.13,19.51,14.13,30.45-2.52-.98-2.6-5.22-6.25-4.69-3.14-4.86-6.28-9.72-9.42-14.57,1.65-3.57-5.47-8.36,1.55-11.19Z"/>
  <path class="cls-52" d="M499.25,107.45c.4-.27.84-.35,1.32-.24,6.49,2.37,13.04.07,19.55.21-2.63,1.19-5.26,2.37-8.62,3.89,2.38.43,4.06.74,5.75,1.05-15.07,2.27-30.16,4.46-43.34,13.01-1.14-.67-2.27-1.34-3.41-2.01,5.33-2.67,10.66-5.34,15.99-8.01,3.7-.97,7.38-1.98,11.09-2.89,3.28-.81,3.36-2.59,1.68-5Z"/>
  <path class="cls-5" d="M520.12,107.42c-6.52-.14-13.06,2.16-19.55-.21,14.37-5.34,28.89-7.05,43.68-1.73-7.84,3.14-16.11.97-24.13,1.94Z"/>
  <path class="cls-20" d="M398.33,217.52c-6.77,8.74-8.5,19.07-8.39,31.25-5.23-3.9-4.86-8.3-5.78-12.11,2.31-1.58,2.01-4.13,2.15-6.39.5-7.63,4.17-12.12,12.02-12.75Z"/>
  <path class="cls-1" d="M625.41,287.65c-1.84-2.88-1.56-6.12-1.4-9.28.57-11.11,1.22-22.22,1.92-33.32.18-2.91.55-5.84,2.8-8.08,2.92,10.46-.33,20.81-.71,31.2-.24,6.51-1.7,12.98-2.61,19.47Z"/>
  <path class="cls-11" d="M460.69,281.59c-4.63.36-6.66,7.48-12.47,4.81-1.17-7.62,2.57-10.75,9.79-10.9,3.94-.08,7.87-.4,13.22-.68-3.37,4.23-7.55,4.61-10.54,6.78Z"/>
  <path class="cls-8" d="M435.17,199.06c-5.61,5.13-11.22,10.25-16.84,15.38,4.9-9.53,9.59-19.06,18.25-25.66,2.31,3.81-.39,6.93-1.42,10.28Z"/>
  <path class="cls-29" d="M659.19,235.42c-.47-.89-1.38-1.79-1.34-2.66.42-9.08-3.42-14.54-12.78-15.51,3.11-3.06,7.26-7.6,10.63-6.33,4.23,1.59,4.5,7.85,4.83,12.51.29,3.99,1.77,8.3-1.35,11.98Z"/>
  <path class="cls-22" d="M654.78,299.95c-1.95-10.22-.46-20.19.76-31.24,5.2,7.16,4.81,21.1-.76,31.24Z"/>
  <path class="cls-21" d="M345.18,857.04c3.76.41,6.32,2.48,6.3,5.98-.02,3.71-2.38,6.73-6.39,6.67-3.97-.06-6.2-2.77-5.98-6.82.2-3.72,2.56-5.54,6.07-5.83Z"/>
  <path class="cls-72" d="M697.65,857.26c3.76.04,6.25,1.76,6.61,5.43.4,4.05-2.06,6.78-5.8,7.01-3.84.23-6.47-2.54-6.6-6.37-.13-3.58,2.27-5.65,5.79-6.06Z"/>
  <path class="cls-21" d="M387.36,299.02c-1.11-9.83-4.46-19.69-.09-30.21,3.05,3.81,2.74,7.65,3.34,11.23,0,2.87.26,5.78-.04,8.62-.38,3.62,1.74,8.12-3.21,10.35Z"/>
  <path class="cls-12" d="M398.33,217.52c-7.85.63-11.53,5.11-12.02,12.75-.15,2.25.16,4.8-2.15,6.39-.46-7.07-.76-14.06,1.4-21.05,1.58-5.11,3.47-6.54,7.68-2.51,1.62,1.55,4.67,1.46,5.09,4.42Z"/>
  <path class="cls-25" d="M387.36,299.02c4.95-2.23,2.83-6.73,3.21-10.35.3-2.84.05-5.74.04-8.62,2.14,9.9,3.08,19.85,2.33,31.5-4.74-4.31-5.44-8.3-5.57-12.53Z"/>
  <path class="cls-26" d="M391.98,198.03c1.09-2.55-.36-7.36,3.93-8.64,1.97-.59,4.68,1.82,3.41,4.79-1.42,3.34.02,8.73-5.12,9.48-2.58.37-2.53-2.76-2.22-5.63Z"/>
  <path class="cls-36" d="M417.7,257.63c2.85,8.93,1.29,18.29,2.43,27.42.44,3.5-1.44-.33-2.33-.4-.74-6.77-1.58-13.53-2.15-20.31-.2-2.37-1.62-5.4,2.05-6.71Z"/>
  <path class="cls-70" d="M602.97,170.05c5.26,3.38,6.41,8.96,8.71,15.3-4.6-.91-6.42-3.74-8.7-5.86,2.3-3.15-2.4-6.29,0-9.44Z"/>
  <path class="cls-71" d="M492.71,150.37c1.56-1.75,3.43-2.96,5.99-3.51.53,2.5-3.26,4.41-.92,6.93-3.75,2.69-7.51,5.37-11.26,8.06.18-4.84,6.64-6.29,6.19-11.47Z"/>
  <path class="cls-22" d="M486.28,220.65c2.44.85,4.25-1.28,6.48-1.39-3.19,6.79-10.35,8.85-15.65,13.12-.61-.6-1.22-1.19-1.83-1.79l10.99-9.94Z"/>
  <path class="cls-57" d="M468.81,522.79c4.06-8.53,8.11-9.31,16.08-1.97-7-2.94-11.83-2.14-16.08,1.97Z"/>
  <path class="cls-40" d="M410.45,168.85c-.86,2.85-3.02,4.3-5.56,5.17-1.71.58-3.5.07-3.12-2.05.43-2.44.52-5.79,3.11-6.64,2.31-.76,4.01,1.84,5.58,3.53Z"/>
  <path class="cls-27" d="M451.24,222.5c-5.38,3.34-10.76,6.67-16.14,10.01-.59-.65-3.56-.3-1.59-1.89,4.52-3.65,9.56-6.66,14.39-9.92,1.11.6,2.23,1.2,3.34,1.81Z"/>
  <path class="cls-58" d="M384.1,457.58c8.17-2.21,6.68,7.02,11.04,9.32.09,1.19.18,2.38.27,3.57-5.57-2.72-8.23-7.99-11.31-12.89Z"/>
  <path class="cls-2" d="M435.17,199.06c1.03-3.35,3.73-6.47,1.42-10.28,1.54-1.79,2.86-3.87,5.43-4.39,4.5,3.34-3.3,6.32-.28,9.61-1.49,2.59-4.1,3.75-6.57,5.06Z"/>
  <path class="cls-28" d="M409.47,270.19c-5.93-4.37-5.14-11.13-6.13-17.26,4.69.85,3.8,5.05,4.62,8.06.82,2.98,1.03,6.13,1.51,9.2Z"/>
  <path class="cls-5" d="M636.51,260.82c.49,2.05-.28,4.43,1.67,6.08-.35,4.25-.14,8.71-4.47,11.4-.9-6.12.36-11.89,2.8-17.47Z"/>
  <path class="cls-18" d="M539.19,499.15c5.16-3.38,9.05-8.81,15.76-9.67-3.49,6.09-8.73,9.34-15.76,9.67Z"/>
  <path class="cls-37" d="M364.41,859.18c2.5.21,3.84,1.66,3.9,4.04.05,2.01-.94,3.6-3.1,3.87-2.51.31-4.1-1.08-4.34-3.46-.23-2.38,1.27-3.83,3.54-4.45Z"/>
  <path class="cls-31" d="M475.29,230.6c.61.6,1.22,1.19,1.83,1.79-3.87,4.33-8.87,6.87-14.8,8.2,4.32-3.33,8.65-6.66,12.97-9.99Z"/>
  <path class="cls-43" d="M574.96,521.9c-2.88-1.99-6.49-2.62-10.67-4.92,6.23-1.91,9.08.25,10.67,4.92Z"/>
  <path class="cls-62" d="M362.74,383.73c1.31,5.51-2.28,8.46-7.28,10.9-17.91,8.71-35.68,17.72-53.65,26.29-2.85,1.36-6.4,5.44-9.67,1.13-2.85-3.75-.24-13.32,3.93-15.42,13.51-6.83,27.11-13.46,40.69-20.15,5.96-2.93,11.89-5.9,17.91-8.71,7.9-3.68,8.05-3.54,8.07,5.96Z"/>
  <path class="cls-24" d="M308.79,375.78c-1.09-4.78,1.75-7.54,6.37-9.76,15.08-7.24,29.96-14.9,45.07-22.09,3.15-1.5,6.77-5.97,10.34-1.79,3.13,3.67-.27,13.3-4.97,15.71-12.52,6.43-25.11,12.73-37.69,19.06-3.56,1.79-7.16,3.51-10.75,5.23-8.13,3.89-8.44,3.67-8.36-6.36Z"/>
  <path class="cls-33" d="M291.26,446.7c-.95-4.76,1.45-7.95,6.63-10.29,13.83-6.26,27.38-13.16,41.2-19.43,2.62-1.19,5.66-5.67,8.89-1.33,3,4.02.75,13.14-3.56,15.36-9.24,4.76-18.59,9.3-27.92,13.87-5.5,2.7-11.03,5.36-16.6,7.91-7.92,3.62-8.61,3.16-8.64-6.08Z"/>
  <path class="cls-6" d="M294.21,358.36c-.93-.44-1.86-.89-2.79-1.33,25.32-14.86,50.63-29.72,75.94-44.57.5.84.99,1.68,1.49,2.52-24.38,15.29-49.16,29.91-74.64,43.39Z"/>
  <path class="cls-33" d="M760.04,416.79c0,9.43-.23,9.55-8.25,5.78-19.27-9.05-38.57-18.03-57.8-27.16-2.84-1.35-6.2-2.81-7.83-5.22-2.62-3.86-2.64-9.48-.45-12.93,2.27-3.56,6.09.66,8.9,1.95,19.6,8.96,39.06,18.23,58.62,27.28,4.81,2.23,8.1,5.1,6.82,10.29Z"/>
  <path class="cls-13" d="M676.74,348.05c-1.05-6.97,1-8.61,7.24-5.53,17.61,8.69,35.4,17.03,53.1,25.54,4.93,2.37,7.59,10.89,5.06,15.54-1.32,2.42-3.08,1.58-4.72.84-19.09-8.68-38.15-17.4-56.62-27.36-3.91-2.11-4.8-5.39-4.06-9.01Z"/>
  <path class="cls-14" d="M760.26,447.66c-.07,9.42-.45,9.71-8.15,6.11-14.42-6.73-28.68-13.83-43.29-20.13-7.44-3.21-6.35-8.88-5.81-14.6.34-3.63,2.94-3.11,5.33-2.01,15.91,7.3,31.78,14.69,47.72,21.94,4.31,1.96,4.42,5.49,4.19,8.7Z"/>
  <path class="cls-30" d="M405.57,714.35c4.3,6.09,3.87,12.81,5.87,18.75,1.18,3.51,1.56,7.28,2.35,10.92,3.05,14.11,3.06,13.9-11.38,13.56-4.77-.11-6.11-1.53-5.06-6.09,2.79-12.11,5.38-24.26,8.21-37.14Z"/>
  <path class="cls-68" d="M524.89,411.04c-15.35-.19-25.79-6.47-34.62-16.08-17.63-19.17-30.13-41.15-36.97-66.37-1.62-5.98-.2-6.97,5.61-5.43,18.18,4.81,35.33,4.54,49.2-10.97,3.64-4.07,4.14-9.11,5.98-13.74,1.56-3.92,3.56-7.23,8.53-7.01,4.43.19,6.47,3.07,7.97,6.75,9.59,23.58,25.89,32.08,51.14,26.71,9.46-2.01,9.33-2.04,7.2,7.46-5.97,26.66-20.38,48.41-39.41,67.34-7.19,7.15-16.08,11.3-24.63,11.34ZM538.96,342.17c.87-2.3,1.3-4.59-.05-6.79-11.2,4.61-22.3,4.54-33.55-.3-.76,2.53-.46,4.83.47,7.1,11.88,14.02,20.43,14.38,33.13,0ZM547.27,372.61c-11.21-13.57-41.08-13.41-49.23-.05,16.4-4.52,32.38-3.78,49.23.05ZM533.34,380.84c-8.4-2.54-14.52-2.84-21.67.25,7.24,3.51,13.4,3.17,21.67-.25Z"/>
  <path class="cls-10" d="M655.73,439.37c.73-3.27,1.45-6.54,2.49-11.19,6.02,9.58-.34,15.25-3.7,21.51-1.75-3.69-2.9-7.31,1.21-10.32Z"/>
  <path class="cls-53" d="M606.52,856.35c-.16,4.59,1.31,9.41-6.22,9.35-10.21-.08-5.47-7.49-6.4-11.94-.89-4.28-.15-7.35,5.87-7.44,8.63-.13,6.33,5.71,6.74,10.02Z"/>
  <path class="cls-53" d="M495.96,865.06c-.01-3.99-.08-7.99.01-11.98.07-3.04-.89-6.61,4.34-6.67,4.67-.05,8.08,1.16,8.22,6.32.23,9.04.3,18.1.08,27.14-.13,5.3-4.31,4.98-8.16,5.18-4.42.22-4.54-2.45-4.49-5.62.08-4.79.02-9.58,0-14.37Z"/>
  <path class="cls-53" d="M457.72,866.22c0,4.23-.22,8.48.06,12.69.33,4.97-1.96,6.32-6.59,6.38-4.91.06-6.5-1.97-6.39-6.61.2-8.72.23-17.46,0-26.18-.13-4.93,2-6.25,6.64-6.34,5.01-.1,6.54,1.94,6.3,6.58-.24,4.48-.05,8.99-.05,13.48h.05Z"/>
  <path class="cls-5" d="M499.25,107.45c1.68,2.42,1.61,4.2-1.68,5-3.71.91-7.4,1.92-11.09,2.89-.27-1.28-3.65-2.5-.02-3.86,4.19-1.57,8.11-4,12.79-4.04Z"/>
  <path class="cls-5" d="M638.07,267.16c.44-4.19,1.1-8.3,5.23-12.29,2.62,8.1,2.2,15.22.06,22.39-2.25-3.11,2.53-9.91-5.29-10.1Z"/>
  <path class="cls-23" d="M547.27,372.61c-16.85-3.83-32.83-4.57-49.23-.05,8.15-13.36,38.01-13.52,49.23.05Z"/>
  <path class="cls-17" d="M505.83,342.17c-.93-2.27-1.23-4.57-.47-7.1,11.25,4.84,22.34,4.91,33.55.3,1.35,2.21.92,4.5.05,6.79-11.04,6.57-22.08,7.31-33.13,0Z"/>
  <path class="cls-48" d="M505.83,342.17c11.04,7.31,22.08,6.57,33.13,0-12.7,14.38-21.25,14.02-33.13,0Z"/>
  <path class="cls-25" d="M533.34,380.84c-8.27,3.42-14.43,3.76-21.67.25,7.15-3.09,13.27-2.79,21.67-.25Z"/>
</svg>